<?xml version="1.0" encoding="UTF-8" standalone="no"?>
<svg
   xmlns:dc="http://purl.org/dc/elements/1.1/"
   xmlns:cc="http://creativecommons.org/ns#"
   xmlns:rdf="http://www.w3.org/1999/02/22-rdf-syntax-ns#"
   xmlns:svg="http://www.w3.org/2000/svg"
   xmlns="http://www.w3.org/2000/svg"
   xmlns:sodipodi="http://sodipodi.sourceforge.net/DTD/sodipodi-0.dtd"
   xmlns:inkscape="http://www.inkscape.org/namespaces/inkscape"
   inkscape:version="1.0 (4035a4f, 2020-05-01)"
   sodipodi:docname="Dornsife_Formal_FullTag_CardOnWhite-2.svg"
   version="1.1"
   id="svg2"
   xml:space="preserve"
   width="346.78799"
   height="87.999985"
   viewBox="0 0 346.78799 87.999982"><sodipodi:namedview
     fit-margin-bottom="0"
     fit-margin-right="0"
     fit-margin-left="0"
     fit-margin-top="0"
     inkscape:current-layer="g12"
     inkscape:window-maximized="0"
     inkscape:window-y="99"
     inkscape:window-x="0"
     inkscape:cy="66.031383"
     inkscape:cx="97.149707"
     inkscape:zoom="1.3443627"
     showguides="false"
     showgrid="false"
     id="namedview186"
     inkscape:window-height="869"
     inkscape:window-width="1644"
     inkscape:pageshadow="2"
     inkscape:pageopacity="0"
     guidetolerance="10"
     gridtolerance="10"
     objecttolerance="10"
     borderopacity="1"
     bordercolor="#666666"
     pagecolor="#ffffff" /><metadata
     id="metadata8"><rdf:RDF><cc:Work
         rdf:about=""><dc:format>image/svg+xml</dc:format><dc:type
           rdf:resource="http://purl.org/dc/dcmitype/StillImage" /><dc:title></dc:title></cc:Work></rdf:RDF></metadata><defs
     id="defs6"><clipPath
       id="clipPath1177"
       clipPathUnits="userSpaceOnUse"><rect
         transform="matrix(0.99999834,-0.00182315,0,-1,0,0)"
         ry="11.157702"
         y="-1612.9855"
         x="310.08713"
         height="1417.3153"
         width="5497.3242"
         id="rect1179"
         style="fill:#000000;fill-opacity:0;stroke-width:7.50001" /></clipPath><clipPath
       id="clipPath1181"
       clipPathUnits="userSpaceOnUse"><rect
         transform="matrix(0.99999834,-0.00182315,0,-1,0,0)"
         ry="11.157702"
         y="-1612.9855"
         x="310.08713"
         height="1417.3153"
         width="5497.3242"
         id="rect1183"
         style="fill:#000000;fill-opacity:0;stroke-width:7.50001" /></clipPath></defs><g
     style="display:inline"
     transform="matrix(1,-0.00182315,0,1,-189.86252,-46.05656)"
     id="g1104"><g
       transform="matrix(1.3333333,0,0,-1.3333333,-44.320266,210.54933)"
       id="g10"><g
         transform="scale(0.1)"
         id="g12"><path
           sodipodi:nodetypes="ccccc"
           id="path14"
           style="fill:#ffffff;fill-opacity:1;fill-rule:nonzero;stroke:none"
           d="M 6335.2097,-17.105743 H 215.20967 V 1782.8943 H 6335.2097 V -17.105743" /><g
           transform="matrix(0.4773321,0,0,0.4773321,1597.7048,469.73671)"
           clip-path="url(#clipPath1181)"
           id="g1166"><path
             d="m 1992.13,678.328 c 0,-3.449 0.27,-48.617 0.55,-65.09 0,-5.308 1.05,-9.566 4.49,-14.879 4.28,-5.57 14.88,-8.5 28.18,-8.5 27.09,0 49.14,11.692 62.42,28.692 11.18,13.82 19.4,35.609 19.4,59.789 0,20.719 -9.03,44.629 -21.8,58.719 -13.81,15.132 -37.21,25.5 -66.68,25.5 -5.84,0 -16.74,0 -21.25,-2.661 -3.73,-2.398 -4.78,-6.648 -5.04,-12.488 -0.27,-11.16 -0.27,-45.969 -0.27,-50.219 z m -24.43,25.774 c 0,6.91 -0.81,44.636 -1.35,49.148 -0.78,6.379 -4.24,7.441 -11.43,7.441 h -14.61 c -1.33,0 -2.13,0.258 -2.13,1.86 v 7.179 c 0,1.059 0.8,1.309 1.88,1.309 3.46,0 15.14,-0.801 39.04,-0.801 6.92,0 33.48,0.813 39.59,0.813 34.28,0 62.97,-3.981 86.35,-23.903 17.26,-14.878 29.49,-36.937 29.49,-67.75 0.02,-30.546 -8.75,-50.738 -26.29,-69.867 -25.51,-28.172 -62.17,-28.172 -82.61,-28.172 -16.76,0 -36.96,0.801 -48.91,0.801 -23.11,0 -33.73,-0.801 -37.46,-0.801 -1.33,0 -1.86,0.52 -1.86,1.86 v 6.902 c 0,1.07 0.8,1.59 2.13,1.59 h 17.79 c 5.04,0 7.97,2.129 8.52,6.391 0.78,5.57 1.86,65.347 1.86,86.078 v 19.922"
             style="fill:#000000;fill-opacity:1;fill-rule:nonzero;stroke:none"
             id="path16" /><path
             d="m 2212.89,640.621 c -9.57,-7.172 -35.6,-12.5 -35.6,-34.539 0,-9.844 5.84,-14.621 13.8,-14.621 7.72,0 21.8,9.309 21.8,16.488 z m 19.4,-26.84 c 0,-15.133 3.2,-19.922 7.96,-19.922 4.26,0 7.97,2.129 9.3,3.993 1.08,1.32 1.58,1.859 2.66,1.058 l 2.65,-2.129 c 0.8,-0.793 1.33,-2.133 -0.25,-4.781 -2.13,-3.98 -7.19,-13.031 -20.72,-13.031 -9.57,0 -16.49,6.922 -18.87,17.812 h -0.55 c -5.56,-6.64 -14.33,-12.222 -26.29,-16.211 -5.04,-1.601 -9.82,-1.601 -15.66,-1.601 -6.39,0 -15.96,5.32 -15.96,22.062 0,12.231 5.59,22.848 26.57,32.149 11.97,5.308 25.78,11.691 30.01,15.41 v 17 c -0.52,4.519 -0.8,11.43 -3.71,14.879 -2.93,3.453 -8.24,5.851 -15.93,5.84 -5.32,0 -13.56,-2.118 -17.29,-5.579 -3.71,-3.449 -1.33,-7.441 -1.33,-12.218 0,-9.293 -3.16,-15.141 -14.06,-15.141 -4.26,0 -6.39,2.391 -6.39,8.5 0,8.5 7.45,18.598 18.34,24.969 11.16,6.648 20.45,9.301 32.41,9.308 12.5,0 17.53,-3.718 21.27,-7.187 5.56,-5.57 5.84,-11.68 5.84,-18.852 v -40.648 -15.68"
             style="fill:#000000;fill-opacity:1;fill-rule:nonzero;stroke:none"
             id="path18" /><path
             d="m 2372.81,596.531 c 0,-4.261 2.39,-5.582 5.84,-5.582 h 8.52 c 2.38,0 2.93,-0.801 2.93,-2.41 v -4.238 c 0,-1.86 -0.55,-2.922 -2.13,-2.922 -1.88,0 -10.1,0.793 -25.26,0.793 -13.53,0 -22.05,-0.793 -23.9,-0.793 -1.6,0 -2.11,0.793 -2.11,2.922 l -0.02,4.238 c 0,1.871 0.8,2.41 3.46,2.41 h 7.69 c 2.93,0 5.06,1.321 5.33,6.102 0.26,6.91 0.53,15.41 0.53,22.32 v 35.07 c 0,10.641 0,18.34 -7.71,23.911 -6.37,4.777 -12.76,4.777 -19.4,4.769 -4.26,0 -13.55,-1.851 -21.5,-10.351 -5.33,-5.84 -6.13,-13.02 -6.13,-18.071 v -54.988 c 0,-7.172 0.8,-8.77 6.38,-8.77 h 6.64 c 2.13,0 2.66,-0.8 2.68,-2.66 v -4.519 c 0,-1.59 -0.55,-2.383 -1.88,-2.383 -1.85,0 -9.02,0.793 -23.1,0.793 -13.56,0 -22.07,-0.793 -23.65,-0.793 -1.33,0 -1.86,0.793 -1.86,2.383 v 4.777 c 0,1.602 0.53,2.402 2.64,2.402 h 7.71 c 3.46,0 5.31,0.809 5.31,5.321 v 62.16 c 0,7.969 -4.25,12.5 -10.89,15.68 l -2.13,1.058 c -1.86,0.801 -2.11,1.59 -2.11,2.391 v 1.328 c 0,1.32 1.05,2.133 2.38,2.66 l 22.85,12.75 c 2.13,1.07 3.73,1.859 4.77,1.859 1.33,0 1.87,-1.058 2.13,-3.187 l 1.87,-16.211 h 0.53 c 7.71,9.582 23.1,19.398 36.39,19.398 7.98,0 16.21,-1.589 22.59,-5.839 7.97,-5.309 14.61,-18.598 14.61,-25.227 v -68.551"
             style="fill:#000000;fill-opacity:1;fill-rule:nonzero;stroke:none"
             id="path20" /><path
             d="m 2462.34,640.629 c -9.57,-7.16 -35.6,-12.488 -35.6,-34.539 0,-9.84 5.84,-14.61 13.81,-14.61 7.71,0 21.79,9.301 21.79,16.489 z m 19.4,-26.828 c 0,-15.141 3.18,-19.922 7.95,-19.922 4.27,0 7.99,2.133 9.31,3.98 1.06,1.321 1.59,1.871 2.66,1.071 l 2.66,-2.129 c 0.8,-0.789 1.32,-2.129 -0.28,-4.789 -2.11,-3.973 -7.16,-13.024 -20.7,-13.024 -9.57,0 -16.48,6.922 -18.87,17.813 h -0.54 c -5.57,-6.641 -14.34,-12.231 -26.29,-16.211 -5.06,-1.602 -9.85,-1.602 -15.69,-1.602 -6.36,0 -15.93,5.321 -15.93,22.051 0,12.231 5.58,22.859 26.56,32.152 11.95,5.321 25.78,11.68 30.02,15.411 v 17.007 c -0.53,4.52 -0.8,11.422 -3.71,14.879 -2.93,3.453 -8.25,5.844 -15.94,5.844 -5.33,0 -13.56,-2.121 -17.29,-5.594 -3.71,-3.449 -1.3,-7.437 -1.3,-12.207 0,-9.293 -3.21,-15.14 -14.09,-15.14 -4.25,0 -6.38,2.379 -6.38,8.488 0,8.5 7.42,18.609 18.32,24.98 11.17,6.653 20.47,9.289 32.42,9.289 12.5,0.012 17.54,-3.707 21.25,-7.168 5.58,-5.57 5.84,-11.691 5.84,-18.851 l 0.02,-40.66 v -15.668"
             style="fill:#000000;fill-opacity:1;fill-rule:nonzero;stroke:none"
             id="path22" /><path
             d="m 2637.93,640.648 c -9.57,-7.179 -35.59,-12.5 -35.59,-34.546 0,-9.821 5.84,-14.614 13.81,-14.614 7.7,0 21.78,9.301 21.78,16.473 z m 19.39,-26.839 c 0,-15.149 3.19,-19.918 7.97,-19.918 4.26,0 7.97,2.129 9.3,3.98 1.07,1.328 1.6,1.867 2.68,1.07 l 2.63,-2.132 c 0.8,-0.789 1.33,-2.129 -0.27,-4.778 -2.11,-3.992 -7.15,-13.019 -20.7,-13.019 -9.57,0 -16.47,6.898 -18.87,17.789 h -0.53 c -5.58,-6.629 -14.35,-12.211 -26.31,-16.192 -5.04,-1.597 -9.82,-1.597 -15.66,-1.597 -6.39,-0.012 -15.96,5.316 -15.96,22.039 0,12.219 5.59,22.859 26.58,32.16 11.96,5.32 25.77,11.68 30.02,15.398 l -0.02,17.012 c -0.52,4.508 -0.78,11.418 -3.71,14.867 -2.91,3.473 -8.24,5.852 -15.93,5.852 -5.32,0 -13.56,-2.129 -17.29,-5.578 -3.71,-3.453 -1.33,-7.442 -1.33,-12.223 0,-9.301 -3.16,-15.141 -14.06,-15.148 -4.26,0 -6.39,2.39 -6.39,8.5 0,8.5 7.44,18.597 18.34,24.98 11.15,6.649 20.45,9.289 32.4,9.289 12.5,0 17.54,-3.719 21.27,-7.172 5.57,-5.578 5.84,-11.679 5.84,-18.859 v -40.641 -15.679"
             style="fill:#000000;fill-opacity:1;fill-rule:nonzero;stroke:none"
             id="path24" /><path
             d="m 2797.85,596.551 c 0,-4.25 2.4,-5.571 5.84,-5.571 h 8.52 c 2.38,0 2.93,-0.8 2.93,-2.398 v -4.242 c 0,-1.871 -0.55,-2.918 -2.13,-2.918 -1.88,0 -10.1,0.789 -25.26,0.789 -13.53,0 -22.05,-0.801 -23.9,-0.801 -1.58,0 -2.11,0.801 -2.11,2.918 l -0.02,4.254 c 0,1.859 0.8,2.387 3.46,2.387 h 7.69 c 2.93,0 5.06,1.332 5.33,6.101 0.28,6.91 0.53,15.418 0.53,22.321 v 35.07 c 0,10.629 0,18.328 -7.71,23.91 -6.37,4.789 -12.76,4.789 -19.4,4.789 -4.24,0 -13.55,-1.859 -21.5,-10.371 -5.33,-5.848 -6.12,-13.008 -6.12,-18.059 v -54.992 c 0,-7.187 0.8,-8.769 6.37,-8.769 h 6.64 c 2.13,0 2.66,-0.789 2.68,-2.66 v -4.52 c 0,-1.578 -0.55,-2.379 -1.88,-2.379 -1.85,0 -9.02,0.801 -23.1,0.789 -13.56,0 -22.05,-0.801 -23.66,-0.801 -1.32,0 -1.85,0.801 -1.85,2.391 v 4.781 c 0,1.61 0.53,2.399 2.66,2.399 h 7.69 c 3.46,0 5.31,0.793 5.31,5.301 v 62.179 c 0,7.981 -4.23,12.481 -10.9,15.672 l -2.1,1.07 c -1.88,0.797 -2.13,1.579 -2.13,2.399 v 1.32 c 0,1.32 1.05,2.129 2.38,2.649 l 22.85,12.761 c 2.13,1.051 3.73,1.852 4.79,1.852 1.32,0 1.85,-1.051 2.13,-3.184 l 1.85,-16.218 h 0.53 c 7.71,9.57 23.12,19.41 36.4,19.41 7.97,0 16.22,-1.602 22.58,-5.852 7.97,-5.308 14.61,-18.59 14.61,-25.226 v -68.551"
             style="fill:#000000;fill-opacity:1;fill-rule:nonzero;stroke:none"
             id="path26" /><path
             d="m 2913.95,659.789 c 0,3.731 0,8.762 -2.39,13.02 -3.73,7.171 -12.22,14.351 -27.91,14.351 -8.22,0 -17.26,-2.39 -24.16,-9.57 -10.37,-11.16 -12.22,-25.238 -12.22,-35.328 0,-30.032 20.72,-51.832 36.13,-51.832 14.88,0 26.29,7.718 28.94,14.629 1.35,3.98 1.61,6.113 1.61,9.031 z m 0,84.211 c 0,10.102 -1.86,13.289 -16.74,15.691 -1.6,0.258 -1.86,0.778 -1.86,1.848 v 4.512 c 0,1.07 0.53,1.609 2.13,1.859 10.35,2.129 24.16,4.52 29.22,5.59 2.38,0.25 4.24,0.801 6.11,0.801 1.33,0 1.58,-1.871 1.33,-4.781 -0.8,-13.29 -1.07,-51.809 -1.07,-85.551 V 625.25 c 0,-9.84 0.54,-21.52 2.67,-24.18 2.39,-2.64 7.97,-4.242 11.68,-4.511 3.73,-0.27 4.79,-0.52 5.31,-1.848 l 0.53,-2.129 c 0.28,-1.594 -0.25,-2.391 -1.85,-2.922 l -30.02,-10.109 c -1.59,-0.531 -2.91,0.269 -3.44,2.121 l -3.46,11.68 c -8.51,-8.493 -25.51,-14.332 -39.06,-14.332 -8.77,0 -18.87,-0.532 -31.35,12.21 -13.55,13.29 -16.76,25.25 -16.76,43.051 0,16.469 6.14,32.68 18.6,45.16 10.37,11.168 24.72,16.739 39.59,16.739 10.9,0 20.47,-1.602 28.44,-3.981 V 744"
             style="fill:#000000;fill-opacity:1;fill-rule:nonzero;stroke:none"
             id="path28" /><path
             d="m 3080.51,678.391 c 0,-3.45 0.25,-48.61 0.54,-65.09 0,-5.313 1.04,-9.563 4.52,-14.879 4.25,-5.57 14.86,-8.5 28.16,-8.5 27.09,0.008 49.14,11.699 62.42,28.707 11.15,13.801 19.4,35.59 19.4,59.769 0,20.723 -9.05,44.641 -21.8,58.723 -13.81,15.141 -37.19,25.508 -66.68,25.508 -5.84,0 -16.74,0 -21.25,-2.668 -3.73,-2.402 -4.78,-6.641 -5.06,-12.492 -0.25,-11.16 -0.25,-45.969 -0.25,-50.199 z m -24.44,25.769 c 0,6.91 -0.8,44.641 -1.34,49.149 -0.78,6.39 -4.26,7.441 -11.43,7.441 h -14.61 c -1.33,0 -2.13,0.27 -2.13,1.871 v 7.168 c 0,1.063 0.8,1.32 1.86,1.32 3.47,0 15.15,-0.8 39.06,-0.8 6.91,0 33.48,0.812 39.59,0.812 34.28,0 62.97,-3.992 86.35,-23.902 17.26,-14.887 29.49,-36.938 29.49,-67.75 0,-30.547 -8.77,-50.75 -26.31,-69.867 -25.49,-28.172 -62.15,-28.172 -82.62,-28.172 -16.73,0 -36.93,0.8 -48.88,0.8 -23.11,0 -33.75,-0.8 -37.46,-0.8 -1.33,0 -1.86,0.531 -1.86,1.851 v 6.91 c 0,1.059 0.8,1.579 2.13,1.579 h 17.79 c 5.06,0 7.97,2.14 8.5,6.378 0.8,5.582 1.87,65.372 1.87,86.09 v 19.922"
             style="fill:#000000;fill-opacity:1;fill-rule:nonzero;stroke:none"
             id="path30" /><path
             d="m 3301.27,640.68 c -9.57,-7.16 -35.61,-12.481 -35.61,-34.539 0,-9.84 5.86,-14.61 13.83,-14.61 7.7,0 21.78,9.297 21.78,16.489 z m 19.39,-26.828 c 0,-15.153 3.19,-19.922 7.97,-19.922 4.26,0 7.97,2.121 9.3,3.98 1.05,1.34 1.6,1.871 2.68,1.059 l 2.63,-2.117 c 0.8,-0.801 1.33,-2.122 -0.27,-4.793 -2.11,-3.969 -7.15,-13.008 -20.7,-13.008 -9.56,-0.012 -16.47,6.91 -18.87,17.801 h -0.53 c -5.58,-6.641 -14.35,-12.231 -26.31,-16.211 -5.04,-1.602 -9.82,-1.602 -15.66,-1.602 -6.39,0 -15.96,5.32 -15.96,22.051 0,12.23 5.59,22.859 26.58,32.148 11.96,5.313 25.77,11.692 30.02,15.41 v 17 c -0.54,4.532 -0.8,11.43 -3.73,14.891 -2.91,3.441 -8.24,5.852 -15.93,5.852 -5.32,0 -13.56,-2.129 -17.29,-5.59 -3.71,-3.461 -1.31,-7.442 -1.31,-12.219 0,-9.293 -3.18,-15.141 -14.08,-15.141 -4.26,0 -6.39,2.379 -6.39,8.489 0,8.5 7.44,18.609 18.34,24.98 11.15,6.641 20.45,9.301 32.4,9.301 12.5,0 17.54,-3.723 21.25,-7.18 5.59,-5.57 5.84,-11.691 5.84,-18.851 l 0.02,-40.66 v -15.668"
             style="fill:#000000;fill-opacity:1;fill-rule:nonzero;stroke:none"
             id="path32" /><path
             d="m 3403.54,606.691 h 0.8 c 4.25,10.36 22.85,55.789 25.5,66.149 1.86,7.172 0,11.422 -4.78,11.422 h -5.31 c -0.8,0 -1.06,1.328 -1.06,2.636 v 4.801 c 0,1.602 0.53,2.133 1.58,2.133 3.71,0 9.57,-0.801 21.25,-0.801 10.37,0 16.76,0.801 19.12,0.801 2.15,0 2.41,-0.262 2.41,-2.391 v -4.531 c 0,-1.84 0,-2.64 -1.33,-2.64 h -5.04 c -3.18,-0.008 -5.84,-0.54 -8.24,-2.93 -3.99,-3.719 -17.27,-32.68 -21.25,-42.5 -3.19,-7.981 -22.85,-52.61 -23.91,-54.469 -2.13,-3.723 -3.46,-6.109 -6.39,-6.109 -2.63,0 -4.23,2.386 -5.56,5.578 -0.53,1.32 -19.94,51.789 -20.72,53.91 -0.81,2.141 -11.7,32.422 -13.56,36.672 -3.46,7.707 -6.11,9.84 -10.9,9.84 h -5.31 c -1.33,0 -1.58,1.058 -1.58,2.636 v 4.801 c 0,1.852 0.51,2.121 2.91,2.121 2.93,0 7.44,-0.789 22.32,-0.789 14.06,0 20.98,0.789 23.91,0.801 2.13,0 2.65,-0.531 2.65,-2.133 v -4.801 c 0,-1.578 -0.27,-2.636 -1.85,-2.636 h -5.33 c -2.64,0 -4.77,-1.59 -4.77,-5.051 0,-4.789 6.9,-26.832 8.5,-31.352 1.6,-5.05 13.03,-35.597 15.94,-41.168"
             style="fill:#000000;fill-opacity:1;fill-rule:nonzero;stroke:none"
             id="path34" /><path
             d="m 3469.67,740.59 c 0,6.64 5.6,13.808 16.21,13.808 9.3,0 13.81,-7.168 13.81,-13.019 0,-6.899 -4.77,-14.609 -15.39,-14.609 -5.86,0 -14.63,5.32 -14.63,13.82 m 11.97,-81.039 c 0,9.039 -1.6,13.82 -14.88,15.949 -1.86,0.27 -2.38,0.789 -2.38,1.859 v 2.391 c 0,0.801 0.52,1.332 1.85,1.859 8.5,3.18 18.59,7.43 28.69,13.012 2.13,1.07 3.46,1.59 5.04,1.59 1.33,0 1.6,-1.32 1.33,-3.18 -0.53,-4.511 -0.53,-21.25 -0.53,-43.301 v -28.96 c 0,-10.36 0,-19.93 0.28,-22.848 0.52,-5.063 1.32,-6.91 4.25,-6.91 h 12.21 c 2.13,0 2.66,-0.801 2.66,-2.391 v -4.512 c 0,-1.859 -0.51,-2.668 -2.37,-2.668 -2.15,0 -14.35,0.809 -25.5,0.809 -15.41,0 -25.79,-0.809 -28.7,-0.809 -1.34,0 -2.13,0.539 -2.13,2.129 v 5.309 c 0,1.601 0.79,2.133 2.64,2.133 h 13.03 c 2.91,0 3.98,1.066 4.24,5.308 0.27,7.981 0.27,16.211 0.27,24.192 v 39.039"
             style="fill:#000000;fill-opacity:1;fill-rule:nonzero;stroke:none"
             id="path36" /><path
             d="m 3619.26,659.832 c 0,3.719 0,8.77 -2.4,13.02 -3.72,7.187 -12.21,14.347 -27.9,14.347 -8.22,-0.008 -17.26,-2.398 -24.17,-9.57 -10.36,-11.16 -12.21,-25.238 -12.21,-35.34 0,-30.008 20.72,-51.801 36.13,-51.801 14.88,0 26.29,7.711 28.95,14.614 1.34,3.988 1.6,6.109 1.6,9.027 z m 0,84.219 c 0,10.097 -1.86,13.281 -16.74,15.687 -1.6,0.25 -1.86,0.782 -1.86,1.852 v 4.512 c 0,1.07 0.53,1.597 2.13,1.867 10.35,2.121 24.16,4.511 29.22,5.57 2.38,0.262 4.24,0.813 6.1,0.813 1.34,0 1.6,-1.872 1.34,-4.801 -0.8,-13.262 -1.07,-51.801 -1.07,-85.551 v -58.711 c 0,-9.828 0.55,-21.508 2.66,-24.18 2.4,-2.66 7.98,-4.238 11.69,-4.507 3.72,-0.262 4.79,-0.532 5.32,-1.84 l 0.52,-2.141 c 0.28,-1.582 -0.25,-2.402 -1.85,-2.93 l -30.02,-10.089 c -1.58,-0.543 -2.91,0.257 -3.44,2.117 l -3.47,11.691 c -8.5,-8.5 -25.49,-14.351 -39.05,-14.351 -8.77,0 -18.86,-0.52 -31.36,12.23 -13.54,13.281 -16.74,25.231 -16.74,43.039 0,16.461 6.13,32.672 18.61,45.16 10.35,11.16 24.71,16.742 39.57,16.742 10.9,0 20.47,-1.589 28.44,-3.98 v 51.801"
             style="fill:#000000;fill-opacity:1;fill-rule:nonzero;stroke:none"
             id="path38" /><path
             d="m 3785.82,678.441 c 0,-3.453 0.27,-48.621 0.55,-65.089 0,-5.313 1.05,-9.571 4.49,-14.883 4.28,-5.578 14.88,-8.508 28.18,-8.508 27.09,0 49.14,11.711 62.42,28.711 11.18,13.808 19.4,35.598 19.4,59.769 0,20.731 -9.02,44.637 -21.8,58.719 -13.81,15.129 -37.18,25.5 -66.68,25.5 -5.84,0 -16.74,0 -21.25,-2.66 -3.73,-2.391 -4.78,-6.641 -5.04,-12.48 -0.27,-11.161 -0.27,-45.969 -0.27,-50.231 z m -24.43,25.77 c 0,6.898 -0.8,44.629 -1.35,49.141 -0.8,6.386 -4.24,7.437 -11.43,7.437 H 3734 c -1.32,0 -2.11,0.262 -2.11,1.859 v 7.184 c 0,1.059 0.79,1.34 1.86,1.34 3.46,0 15.14,-0.813 39.04,-0.813 6.92,0 33.48,0.813 39.59,0.813 34.28,0 62.97,-3.992 86.35,-23.91 17.27,-14.883 29.49,-36.934 29.49,-67.75 0,-30.551 -8.75,-50.742 -26.29,-69.883 -25.5,-28.168 -62.16,-28.168 -82.63,-28.168 -16.74,0 -36.94,0.801 -48.89,0.801 -23.11,0 -33.73,-0.801 -37.46,-0.801 -1.33,0 -1.86,0.539 -1.86,1.859 v 6.899 c 0,1.082 0.8,1.601 2.13,1.601 h 17.8 c 5.05,0 7.96,2.129 8.51,6.379 0.78,5.582 1.86,65.352 1.86,86.082 v 19.93"
             style="fill:#000000;fill-opacity:1;fill-rule:nonzero;stroke:none"
             id="path40" /><path
             d="m 4037.4,640.191 c 0,29.5 -21.52,48.09 -35.08,48.09 -7.16,0 -14.08,-1.59 -20.46,-8.511 -10.36,-10.629 -14.07,-21.508 -14.07,-41.711 0,-14.868 1.6,-24.957 10.1,-37.188 6.11,-8.769 13.83,-13.82 26.31,-13.82 20.19,0 33.2,24.719 33.2,53.14 m -76.79,-42.769 c -12.21,14.609 -14.61,24.449 -14.61,43.308 0,13.54 7.18,30.551 22.87,42.758 13.79,10.621 26.81,12.762 35.58,12.762 14.61,0 29.22,-7.441 37.19,-15.41 11.95,-12.211 18.07,-26.031 18.07,-43.301 0,-28.957 -26.02,-58.449 -58.71,-58.449 -12.74,0 -29.22,5.039 -40.39,18.332"
             style="fill:#000000;fill-opacity:1;fill-rule:nonzero;stroke:none"
             id="path42" /><path
             d="m 4092.11,652.949 c 0,13.551 -2.13,16.199 -9.57,20.199 l -5.04,2.653 c -1.6,0.539 -2.13,0.789 -2.13,1.871 v 1.59 c 0,1.047 0.53,1.578 2.13,2.386 l 26.29,13.551 c 1.6,0.801 2.67,1.063 3.73,1.063 1.6,0 1.87,-1.59 1.87,-3.192 l 1.31,-18.332 h 1.08 c 7.97,12.223 20.45,23.114 31.87,23.114 9.05,0 13.56,-5.571 13.56,-11.692 0,-7.699 -6.39,-13.012 -11.16,-13.012 -2.92,0 -5.58,1.063 -7.71,2.122 -2.13,1.332 -5.31,2.121 -8.77,2.121 -4.26,0 -11.15,-2.641 -15.66,-11.161 -1.61,-2.921 -2.66,-7.691 -2.66,-8.492 V 601.93 c 0,-8.231 1.86,-10.891 7.44,-10.879 h 12.48 c 1.58,0 1.86,-0.801 1.86,-2.391 v -4.781 c 0,-1.59 -0.28,-2.391 -1.33,-2.391 -1.58,0 -13.81,0.801 -28.15,0.801 -16.48,0 -27.63,-0.801 -29.23,-0.801 -1.06,0 -1.59,0.524 -1.59,2.653 l -0.02,4.519 c 0,1.871 0.53,2.379 2.93,2.379 h 10.38 c 3.98,0 5.84,1.609 5.84,5.063 0.25,8.757 0.25,18.058 0.25,31.867 v 24.98"
             style="fill:#000000;fill-opacity:1;fill-rule:nonzero;stroke:none"
             id="path44" /><path
             d="m 4274.63,596.641 c 0,-4.25 2.38,-5.582 5.84,-5.582 h 8.51 c 2.37,0 2.91,-0.797 2.91,-2.387 v -4.262 c 0,-1.859 -0.52,-2.922 -2.12,-2.922 -1.86,0 -10.1,0.801 -25.24,0.801 -13.53,0 -22.05,-0.801 -23.9,-0.801 -1.61,0 -2.13,0.801 -2.13,2.922 v 4.25 c 0,1.86 0.8,2.399 3.45,2.399 h 7.7 c 2.93,0 5.04,1.332 5.31,6.101 0.27,6.918 0.53,15.422 0.53,22.328 v 35.071 c 0,10.621 0,18.332 -7.7,23.902 -6.36,4.789 -12.75,4.789 -19.39,4.789 -4.26,0 -13.56,-1.859 -21.52,-10.359 -5.32,-5.852 -6.12,-13.02 -6.12,-18.082 V 599.82 c 0,-7.16 0.8,-8.761 6.39,-8.761 h 6.64 c 2.13,0 2.66,-0.797 2.66,-2.661 v -4.519 c 0,-1.59 -0.53,-2.391 -1.86,-2.391 -1.86,0 -9.04,0.801 -23.13,0.801 -13.53,0 -22.05,-0.801 -23.63,-0.801 -1.33,0 -1.87,0.801 -1.87,2.383 v 4.789 c 0,1.59 0.54,2.391 2.65,2.391 h 7.72 c 3.46,0 5.31,0.801 5.31,5.32 v 62.168 c 0,7.961 -4.26,12.481 -10.9,15.672 l -2.13,1.059 c -1.85,0.8 -2.11,1.601 -2.11,2.402 v 1.316 c 0,1.321 1.04,2.133 2.37,2.66 l 22.85,12.75 c 2.13,1.063 3.73,1.864 4.78,1.864 1.33,0 1.86,-1.051 2.13,-3.172 l 1.86,-16.219 h 0.55 c 7.69,9.559 23.1,19.391 36.38,19.391 7.97,0 16.21,-1.59 22.58,-5.84 7.97,-5.313 14.61,-18.594 14.61,-25.242 l 0.02,-68.539"
             style="fill:#000000;fill-opacity:1;fill-rule:nonzero;stroke:none"
             id="path46" /><path
             d="m 4311.54,586.809 c -1.33,0.8 -1.33,2.39 -1.6,3.722 l -4.51,25.231 c -0.27,1.34 0.53,1.867 1.58,2.136 l 3.46,0.782 c 1.07,0.281 1.85,-0.258 2.4,-1.578 l 6.62,-13.024 c 5.33,-9.816 9.05,-16.469 23.15,-16.469 9.27,0 20.97,5.571 20.97,18.051 0,11.969 -5.86,18.879 -25.78,24.469 -15.66,4.512 -31.35,12.742 -31.35,33.73 0,18.332 17.29,32.422 37.19,32.422 12.76,0 19.67,-3.203 24.46,-5.59 3.98,-1.851 4.51,-3.191 4.78,-4.781 l 3.98,-18.609 c 0,-1.051 -0.52,-1.852 -1.85,-2.371 l -3.2,-1.071 c -1.06,-0.277 -1.61,0 -2.39,1.332 l -9.02,12.219 c -3.2,5.051 -8.24,10.352 -18.61,10.352 -10.1,0 -20.45,-6.09 -20.45,-17.532 0,-15.41 12.48,-18.332 25.51,-22.05 19.39,-5.571 31.62,-13.539 31.87,-34 -0.25,-21.52 -17.79,-35.071 -40.37,-35.071 -13.03,0 -23.65,5.301 -26.84,7.7"
             style="fill:#000000;fill-opacity:1;fill-rule:nonzero;stroke:none"
             id="path48" /><path
             d="m 4401.31,740.641 c 0,6.648 5.58,13.82 16.21,13.82 9.3,0 13.81,-7.172 13.81,-13.012 0,-6.929 -4.77,-14.609 -15.39,-14.609 -5.86,0 -14.63,5.308 -14.63,13.801 m 11.97,-81.02 c 0,9.02 -1.6,13.82 -14.88,15.938 -1.86,0.25 -2.4,0.8 -2.4,1.851 v 2.391 c 0,0.808 0.54,1.328 1.87,1.859 8.5,3.192 18.59,7.442 28.69,13.031 2.13,1.047 3.46,1.59 5.04,1.59 1.33,0 1.6,-1.34 1.33,-3.191 -0.53,-4.531 -0.53,-21.25 -0.53,-43.301 V 620.82 c 0,-10.359 0,-19.91 0.28,-22.84 0.52,-5.058 1.32,-6.921 4.23,-6.921 l 12.23,0.011 c 2.13,0 2.66,-0.8 2.66,-2.398 v -4.512 c 0,-1.859 -0.51,-2.66 -2.39,-2.66 -2.12,0 -14.33,0.801 -25.5,0.801 -15.41,0 -25.77,-0.801 -28.7,-0.801 -1.32,0 -2.12,0.531 -2.12,2.121 v 5.328 c 0,1.59 0.8,2.11 2.65,2.11 h 13.03 c 2.91,0 3.98,1.07 4.24,5.332 0.27,7.968 0.27,16.199 0.27,24.168 v 39.062"
             style="fill:#000000;fill-opacity:1;fill-rule:nonzero;stroke:none"
             id="path50" /><path
             d="m 4482.87,680.34 h -18.32 c -1.33,0 -1.85,0.531 -1.33,2.93 l 1.08,7.968 c 0.25,1.59 1.05,1.864 3.16,1.864 h 15.41 v 5.027 c 0,26.312 7.44,43.59 17.81,55.269 14.09,15.411 28.7,20.993 43.58,20.993 12.48,0 24.18,-4.77 24.18,-14.871 0,-6.379 -6.92,-11.43 -11.17,-11.43 -2.66,0 -5.32,0.531 -7.45,1.601 -2.38,1.329 -5.31,4.778 -6.36,6.11 -3.46,4.25 -7.19,6.097 -12.23,6.097 -6.89,0 -14.08,-1.847 -19.92,-9.289 -9.85,-12.488 -9.3,-35.597 -9.3,-54.199 v -5.308 h 32.15 c 1.86,0 2.11,-1.602 1.86,-2.661 l -1.33,-8.761 c -0.28,-1.071 -1.33,-1.328 -3.46,-1.328 l -29.22,-0.012 v -23.649 c 0,-31.339 0,-55.793 0.28,-58.711 0.52,-4.519 1.32,-6.91 6.89,-6.91 h 15.16 c 2.4,0 2.93,-0.519 2.93,-2.121 v -4.25 c 0,-2.129 -0.53,-3.199 -1.88,-3.199 -1.6,0 -11.41,0.789 -31.87,0.789 -14.59,0 -28.17,-0.789 -30.3,-0.789 -1.58,0 -2.11,0.539 -2.11,1.871 l -0.02,5.848 c 0,1.32 0.53,1.851 2.66,1.851 h 12.75 c 5.06,0 6.12,3.192 6.39,9.301 v 49.949 l -0.02,30.02"
             style="fill:#000000;fill-opacity:1;fill-rule:nonzero;stroke:none"
             id="path52" /><path
             d="m 4608.26,660.949 c 5.06,0 7.19,1.34 7.19,3.723 0,6.117 -3.2,23.648 -20.47,23.648 -11.68,0 -22.85,-7.711 -27.89,-27.371 z m -42.22,-7.969 c -0.53,-2.39 -0.81,-6.64 -0.81,-12.761 0,-26.02 16.47,-45.68 37.72,-45.68 16.21,0 27.66,9.293 32.15,18.07 0.54,1.063 1.6,1.59 2.4,1.321 l 3.46,-1.86 c 0.8,-0.261 1.33,-1.058 0,-3.98 -4.79,-10.641 -18.6,-28.969 -42.25,-28.969 -15.14,0 -31.87,4.508 -41.72,18.867 -9.28,13.543 -11.68,23.383 -11.68,41.981 0,10.351 2.66,28.152 16.74,42.242 11.41,11.68 24.71,14.09 37.99,14.09 30.57,0 39.04,-28.699 39.04,-39.071 0.02,-3.718 -3.18,-4.242 -7.42,-4.242 l -65.62,-0.008"
             style="fill:#000000;fill-opacity:1;fill-rule:nonzero;stroke:none"
             id="path54" /><path
             d="m 1970.9,301 c -19.14,18.051 -28.44,48.879 -28.44,74.379 0,24.711 7.97,50.223 27.09,70.402 13.56,14.36 37.46,26.848 66.43,26.848 24.16,0 44.1,-9.039 53.67,-14.598 3.46,-2.14 4.78,-1.871 5.31,0 l 2.11,7.68 c 0.55,1.598 1.07,1.598 3.46,1.598 2.4,0 2.93,-0.52 2.93,-4.239 0,-5.039 5.31,-44.109 6.64,-51.55 0.27,-1.309 0,-2.391 -1.06,-2.649 l -3.98,-1.07 c -1.33,-0.27 -1.86,0 -2.66,2.129 -3.73,8.761 -9.57,21.519 -20.72,32.941 -11.17,11.438 -25.25,20.457 -46.23,20.457 -47.56,-0.008 -66.68,-42.258 -66.41,-81.039 0,-15.418 4.77,-45.418 25.51,-68.277 18.05,-20.184 33.2,-22.321 51,-22.321 30.02,0.008 53.4,16.489 65.62,33.75 0.8,1.34 1.33,1.59 2.13,0.797 l 3.44,-2.656 c 0.8,-0.523 1.35,-1.062 0.55,-2.391 -15.96,-23.101 -41.72,-44.64 -79.16,-44.64 -31.37,0 -51.29,9.84 -67.23,24.449"
             style="fill:#000000;fill-opacity:1;fill-rule:nonzero;stroke:none"
             id="path56" /><path
             d="m 2225.92,338.461 c 0,29.5 -21.51,48.109 -35.08,48.109 -7.17,0 -14.06,-1.609 -20.45,-8.519 -10.35,-10.629 -14.08,-21.52 -14.08,-41.723 0,-14.867 1.6,-24.957 10.12,-37.18 6.09,-8.777 13.8,-13.816 26.28,-13.816 20.2,0 33.23,24.707 33.21,53.129 m -76.78,-42.77 c -12.23,14.629 -14.61,24.438 -14.61,43.309 0,13.551 7.17,30.551 22.85,42.77 13.81,10.621 26.82,12.75 35.59,12.75 14.63,0 29.24,-7.442 37.21,-15.399 11.95,-12.23 18.06,-26.031 18.06,-43.312 0,-28.938 -26.03,-58.438 -58.71,-58.45 -12.75,0 -29.24,5.063 -40.39,18.332"
             style="fill:#000000;fill-opacity:1;fill-rule:nonzero;stroke:none"
             id="path58" /><path
             d="m 2299.51,359.73 c 0,-13.82 0,-53.941 0.28,-62.171 0.25,-4.508 1.32,-8.231 6.89,-8.231 h 11.95 c 2.41,0 2.93,-0.789 2.93,-2.398 v -4.52 c 0,-1.59 -0.52,-2.648 -1.6,-2.648 -1.85,0 -13.53,0.797 -30.02,0.797 -16.99,0 -27.62,-0.797 -30.02,-0.797 -1.33,0 -1.85,1.058 -1.85,2.648 v 4.512 c 0,1.859 0.52,2.406 3.45,2.406 h 12.76 c 2.93,0 5.56,1.852 5.84,6.652 0.25,8.219 0.25,53.918 0.25,69.321 v 16.738 c 0,18.871 -0.25,43.039 -0.8,49.949 -0.53,9.043 -4.77,13.282 -13.28,15.942 l -5.31,1.859 c -1.33,0.531 -1.6,0.801 -1.6,1.332 v 2.117 c 0,0.801 0.82,1.332 2.4,1.852 9.29,4.281 21.25,9.051 31.07,15.43 2.4,1.589 3.99,2.128 5.59,2.128 1.85,0 2.38,-1.339 2.13,-4.789 -0.28,-14.621 -1.08,-69.871 -1.06,-84.48 V 359.73"
             style="fill:#000000;fill-opacity:1;fill-rule:nonzero;stroke:none"
             id="path60" /><path
             d="m 2366.17,359.73 c 0,-13.808 0.02,-53.929 0.28,-62.171 0.25,-4.52 1.32,-8.239 6.91,-8.239 h 11.95 c 2.4,0 2.93,-0.781 2.93,-2.379 v -4.519 c 0,-1.594 -0.53,-2.66 -1.6,-2.66 -1.85,0 -13.53,0.797 -30.02,0.797 -17.01,0 -27.64,-0.797 -30.02,-0.809 -1.33,0 -1.85,1.07 -1.85,2.672 v 4.508 c 0,1.859 0.52,2.39 3.43,2.39 h 12.78 c 2.91,0 5.56,1.86 5.84,6.649 0.25,8.242 0.25,53.929 0.25,69.34 v 16.73 c 0,18.883 -0.25,43.051 -0.8,49.961 -0.53,9.039 -4.79,13.281 -13.28,15.941 l -5.31,1.848 c -1.33,0.543 -1.61,0.801 -1.61,1.332 v 2.129 c 0,0.801 0.81,1.32 2.41,1.859 9.29,4.262 21.25,9.032 31.07,15.411 2.38,1.589 3.99,2.128 5.59,2.128 1.85,0 2.38,-1.339 2.13,-4.789 -0.28,-14.609 -1.08,-69.871 -1.08,-84.48 V 359.73"
             style="fill:#000000;fill-opacity:1;fill-rule:nonzero;stroke:none"
             id="path62" /><path
             d="m 2459.69,359.199 c 5.06,0.012 7.17,1.34 7.17,3.731 0,6.109 -3.19,23.64 -20.45,23.64 -11.68,0 -22.86,-7.699 -27.89,-27.371 z m -42.25,-7.969 c -0.51,-2.378 -0.78,-6.652 -0.78,-12.742 0,-26.047 16.47,-45.699 37.72,-45.699 16.21,0 27.63,9.301 32.16,18.063 0.53,1.058 1.59,1.597 2.39,1.328 l 3.45,-1.86 c 0.8,-0.269 1.31,-1.058 0,-3.992 -4.78,-10.617 -18.59,-28.949 -42.24,-28.957 -15.16,0 -31.9,4.527 -41.72,18.867 -9.3,13.551 -11.7,23.383 -11.7,41.973 0,10.359 2.66,28.18 16.74,42.238 11.42,11.692 24.72,14.09 37.99,14.09 30.56,0 39.06,-28.687 39.06,-39.051 0,-3.718 -3.19,-4.258 -7.44,-4.258 h -65.63"
             style="fill:#000000;fill-opacity:1;fill-rule:nonzero;stroke:none"
             id="path64" /><path
             d="m 2577.64,357.352 c 0,11.687 -2.39,18.609 -7.17,23.91 -3.46,3.457 -8.77,5.84 -12.74,5.84 -6.13,0 -12.5,-1.051 -18.88,-7.422 -8.5,-9.051 -9.57,-21.258 -9.57,-31.36 0,-9.031 2.93,-17.269 8.51,-23.109 4.79,-4.52 9.57,-6.652 15.96,-6.652 18.05,0 23.89,22.062 23.89,38.793 m 24.72,-113.18 c 0,15.68 -11.95,27.637 -38.53,25.769 l -25.51,-1.851 c -8.22,-2.121 -21.25,-11.168 -21.25,-25.5 0,-6.649 5.06,-14.629 10.37,-18.328 8.77,-6.121 18.34,-7.442 37.19,-7.442 9.84,0 39.06,6.899 37.73,27.352 m -87.67,-27.363 c -9.57,5.839 -13.54,12.75 -13.54,21.511 0,14.879 15.12,26.301 27.87,31.891 v 1.059 c -11.15,2.39 -17.79,10.628 -17.79,18.589 0,12.762 14.61,21.789 23.91,25.262 v 0.508 c -10.35,4.531 -24.71,16.742 -24.71,40.391 0,17.261 15.41,38.519 45.43,38.519 20.18,0 30.82,-12.207 33.48,-15.41 7.16,5.062 16.19,10.371 24.96,10.371 8.77,0 13.02,-5.852 12.5,-11.16 0,-5.039 -4.26,-9.82 -10.37,-9.82 -4.52,0 -7.17,2.121 -9.3,3.98 -1.6,1.059 -3.44,2.391 -5.57,2.391 -1.87,0 -5.06,0 -8.51,-1.602 2.13,-5.289 3.98,-11.148 3.98,-20.18 0,-10.371 -2.91,-20.461 -9.82,-28.699 -6.9,-7.711 -22.05,-13.289 -30.82,-13.289 -5.84,0 -9.55,0.277 -13.54,1.328 -5.31,-2.129 -14.08,-7.437 -14.08,-14.859 0,-10.91 13.28,-10.11 31.07,-9.051 21.8,1.07 35.08,-1.32 45.71,-9.559 11.42,-8.492 12.75,-19.128 13.02,-25.5 0,-12.48 -4.51,-22.859 -17.81,-32.679 -6.91,-5.063 -22.85,-12.5 -45.43,-12.5 -12.75,0 -27.89,1.34 -40.64,8.508"
             style="fill:#000000;fill-opacity:1;fill-rule:nonzero;stroke:none"
             id="path66" /><path
             d="m 2695.06,359.219 c 5.04,0 7.19,1.332 7.19,3.722 0,6.118 -3.21,23.649 -20.47,23.649 -11.68,0 -22.85,-7.711 -27.89,-27.371 z m -42.25,-7.969 c -0.52,-2.391 -0.78,-6.648 -0.78,-12.75 0,-26.039 16.49,-45.691 37.72,-45.691 16.21,0 27.63,9.293 32.14,18.062 0.53,1.051 1.61,1.59 2.39,1.328 l 3.47,-1.859 c 0.8,-0.27 1.33,-1.059 0,-3.988 -4.8,-10.633 -18.61,-28.961 -42.24,-28.961 -15.16,0 -31.9,4.5 -41.72,18.871 -9.3,13.527 -11.7,23.367 -11.7,41.968 0,10.352 2.68,28.161 16.74,42.239 11.42,11.691 24.72,14.09 38.01,14.09 30.54,0 39.04,-28.688 39.04,-39.047 0,-3.723 -3.18,-4.262 -7.44,-4.262 h -65.63"
             style="fill:#000000;fill-opacity:1;fill-rule:nonzero;stroke:none"
             id="path68" /><path
             d="m 2898.28,338.52 c 0,29.48 -21.5,48.082 -35.06,48.082 -7.17,-0.012 -14.08,-1.602 -20.45,-8.5 -10.37,-10.641 -14.08,-21.532 -14.08,-41.723 0,-14.879 1.6,-24.957 10.1,-37.199 6.11,-8.758 13.81,-13.821 26.31,-13.821 20.17,0 33.2,24.731 33.18,53.161 m -76.76,-42.79 c -12.22,14.61 -14.61,24.45 -14.63,43.309 0,13.539 7.17,30.551 22.86,42.762 13.8,10.64 26.83,12.75 35.6,12.769 14.61,0 29.22,-7.441 37.19,-15.41 11.95,-12.219 18.09,-26.039 18.09,-43.308 0,-28.961 -26.06,-58.454 -58.74,-58.454 -12.75,0 -29.23,5.051 -40.37,18.332"
             style="fill:#000000;fill-opacity:1;fill-rule:nonzero;stroke:none"
             id="path70" /><path
             d="m 2955.66,378.621 h -18.34 c -1.32,0 -1.85,0.551 -1.32,2.93 l 1.07,7.969 c 0.25,1.601 1.06,1.871 3.18,1.871 h 15.41 v 5.05 c 0,26.278 7.45,43.571 17.8,55.258 14.08,15.41 28.69,20.992 43.57,20.992 12.5,0 24.18,-4.781 24.18,-14.89 0,-6.36 -6.91,-11.41 -11.15,-11.41 -2.68,0 -5.31,0.507 -7.44,1.597 -2.41,1.321 -5.32,4.762 -6.39,6.094 -3.46,4.258 -7.17,6.129 -12.23,6.129 -6.89,0 -14.08,-1.871 -19.92,-9.301 -9.82,-12.488 -9.29,-35.621 -9.29,-54.199 v -5.32 l 32.14,0.007 c 1.86,0 2.13,-1.609 1.88,-2.679 l -1.33,-8.758 c -0.27,-1.063 -1.33,-1.332 -3.46,-1.332 l -29.23,-0.008 v -23.633 c 0,-31.359 0,-55.789 0.27,-58.707 0.55,-4.519 1.33,-6.91 6.91,-6.91 h 15.16 c 2.36,0 2.91,-0.531 2.91,-2.121 V 283 c 0,-2.129 -0.55,-3.199 -1.88,-3.199 -1.58,0 -11.4,0.801 -31.85,0.801 -14.61,0 -28.18,-0.801 -30.29,-0.801 -1.61,0 -2.13,0.519 -2.13,1.871 v 5.84 c 0,1.328 0.52,1.859 2.65,1.859 h 12.76 c 5.04,0 6.11,3.188 6.36,9.277 v 49.954 30.019"
             style="fill:#000000;fill-opacity:1;fill-rule:nonzero;stroke:none"
             id="path72" /><path
             d="m 3108.95,399.629 c 0,17 -0.53,45.16 -0.81,49.949 -0.54,6.891 -1.85,9.563 -9.84,9.563 h -12.48 c -1.58,0 -1.86,1.328 -1.86,2.648 v 5.852 c 0,1.32 0.28,1.859 1.86,1.859 2.93,0 12.48,-0.789 34.53,-0.789 25.78,0 36.94,0.789 39.34,0.789 2.11,0 2.38,-0.789 2.38,-2.129 v -6.101 c 0,-1.321 -0.53,-2.122 -2.66,-2.122 h -15.93 c -8.23,0 -9.3,-2.668 -9.3,-10.359 0,-3.457 -0.8,-43.578 -0.8,-62.168 v -22.859 c 0,-4.512 0.02,-61.903 0.82,-72.793 5.84,-0.528 58.44,-1.047 66.68,0.011 15.68,2.379 31.6,34.258 35.33,44.629 0.53,1.063 1.06,1.59 2.13,1.063 l 4.24,-1.594 c 0.8,-0.539 0.8,-0.797 0.53,-2.398 -0.79,-1.86 -11.41,-45.692 -13.01,-52.871 -3.46,0.269 -24.18,0.531 -47.83,0.531 -23.64,0.269 -49.67,0.269 -64.01,0.269 -10.37,0 -18.08,-0.269 -23.65,-0.269 -5.31,-0.27 -8.5,-0.551 -10.37,-0.551 -1.86,0 -2.13,0.551 -2.13,1.871 v 6.649 c 0,1.332 0.27,1.863 1.87,1.863 h 12.74 c 9.84,0 11.44,3.719 11.44,7.16 0,5.047 0.79,71.207 0.79,87.418 v 14.879"
             style="fill:#000000;fill-opacity:1;fill-rule:nonzero;stroke:none"
             id="path74" /><path
             d="m 3324.39,359.262 c 5.04,0 7.17,1.328 7.17,3.718 0,6.11 -3.18,23.641 -20.45,23.641 -11.7,0 -22.87,-7.711 -27.91,-27.359 z m -42.24,-7.981 c -0.53,-2.383 -0.8,-6.64 -0.8,-12.742 0,-26.039 16.48,-45.699 37.73,-45.699 16.21,0 27.64,9.301 32.15,18.07 0.53,1.051 1.58,1.59 2.38,1.32 l 3.46,-1.859 c 0.8,-0.262 1.33,-1.062 0,-3.98 -4.78,-10.629 -18.59,-28.961 -42.25,-28.961 -15.13,0 -31.87,4.519 -41.69,18.859 -9.3,13.551 -11.7,23.383 -11.7,41.981 0,10.351 2.65,28.16 16.73,42.242 11.43,11.687 24.71,14.078 37.99,14.078 30.57,0.012 39.06,-28.68 39.06,-39.051 0,-3.719 -3.2,-4.25 -7.44,-4.25 l -65.62,-0.008"
             style="fill:#000000;fill-opacity:1;fill-rule:nonzero;stroke:none"
             id="path76" /><path
             d="m 3407.01,313.828 c 0,-19.918 9.04,-23.379 13.81,-23.379 6.11,0 13.83,1.063 17.54,3.461 1.33,0.789 2.4,0.52 3.18,-0.531 l 1.33,-2.391 c 0.8,-1.058 0.27,-2.129 -0.53,-2.91 -2.65,-2.68 -13.55,-10.648 -29.49,-10.648 -13.01,0 -25.76,12.492 -25.76,22.582 0,10.886 0.8,34.269 0.8,37.988 v 5.852 c 0,4.777 0.25,22.597 0.53,33.738 h -16.21 c -2.39,0 -3.99,1.07 -3.99,3.191 0,2.117 1.6,2.918 4.79,4.778 6.37,3.722 26.81,24.453 30.27,33.48 0.8,2.133 2.13,2.652 3.73,2.652 2.11,0 2.66,-1.859 2.66,-3.98 l -1.33,-26.289 h 36.91 c 1.61,0 2.41,-1.332 1.88,-2.41 l -2.66,-9.293 c -0.27,-1.328 -0.8,-2.129 -2.4,-2.129 h -34.26 c -0.54,-12.219 -0.8,-24.969 -0.8,-37.192 v -26.57"
             style="fill:#000000;fill-opacity:1;fill-rule:nonzero;stroke:none"
             id="path78" /><path
             d="m 3489.1,313.84 c 0,-19.93 9.03,-23.391 13.81,-23.391 6.11,0 13.81,1.071 17.54,3.461 1.33,0.801 2.38,0.531 3.18,-0.519 l 1.33,-2.403 c 0.8,-1.058 0.27,-2.129 -0.53,-2.918 -2.65,-2.66 -13.55,-10.629 -29.49,-10.629 -13.03,0 -25.78,12.489 -25.78,22.579 0,10.89 0.8,34.269 0.8,37.992 v 5.847 c 0,4.77 0.27,22.59 0.55,33.743 l -16.21,-0.012 c -2.41,0 -4.01,1.07 -4.01,3.199 0,2.121 1.6,2.922 4.81,4.781 6.36,3.719 26.81,24.442 30.27,33.469 0.8,2.133 2.13,2.66 3.71,2.66 2.13,0 2.68,-1.859 2.68,-3.988 l -1.35,-26.289 h 36.93 c 1.61,0 2.41,-1.332 1.86,-2.402 l -2.64,-9.29 c -0.27,-1.332 -0.8,-2.121 -2.4,-2.121 l -34.28,-0.007 c -0.52,-12.223 -0.8,-24.973 -0.8,-37.192 l 0.02,-26.57"
             style="fill:#000000;fill-opacity:1;fill-rule:nonzero;stroke:none"
             id="path80" /><path
             d="m 3599.06,359.281 c 5.06,0 7.19,1.328 7.19,3.719 0,6.109 -3.18,23.641 -20.47,23.641 -11.68,0 -22.83,-7.711 -27.89,-27.36 z m -42.22,-7.98 c -0.53,-2.379 -0.8,-6.641 -0.8,-12.762 0,-26.019 16.46,-45.68 37.71,-45.68 16.21,0 27.64,9.301 32.17,18.071 0.53,1.058 1.58,1.59 2.38,1.32 l 3.46,-1.859 c 0.8,-0.262 1.33,-1.063 0,-3.981 -4.79,-10.629 -18.6,-28.961 -42.25,-28.961 -15.13,0 -31.87,4.512 -41.72,18.86 -9.29,13.543 -11.68,23.382 -11.7,41.98 0,10.34 2.68,28.16 16.76,42.242 11.43,11.688 24.71,14.078 37.99,14.09 30.55,0 39.04,-28.691 39.04,-39.062 0,-3.719 -3.18,-4.25 -7.44,-4.25 l -65.6,-0.008"
             style="fill:#000000;fill-opacity:1;fill-rule:nonzero;stroke:none"
             id="path82" /><path
             d="m 3662.56,351.309 c 0,13.55 -2.13,16.203 -9.57,20.191 l -5.04,2.66 c -1.6,0.52 -2.13,0.789 -2.13,1.871 v 1.59 c 0,1.051 0.53,1.578 2.13,2.379 l 26.29,13.551 c 1.6,0.808 2.67,1.07 3.73,1.07 1.58,0 1.87,-1.601 1.87,-3.191 l 1.31,-18.328 h 1.08 c 7.97,12.218 20.45,23.109 31.85,23.109 9.05,0 13.58,-5.582 13.58,-11.691 0,-7.7 -6.39,-13.02 -11.16,-13.02 -2.93,0 -5.58,1.07 -7.71,2.121 -2.13,1.328 -5.31,2.129 -8.77,2.129 -4.26,0 -11.17,-2.648 -15.68,-11.16 -1.59,-2.918 -2.64,-7.699 -2.64,-8.5 v -55.801 c 0,-8.23 1.85,-10.891 7.42,-10.891 h 12.48 c 1.6,0 1.88,-0.789 1.88,-2.378 v -4.782 c 0,-1.597 -0.28,-2.398 -1.33,-2.398 -1.6,0 -13.81,0.801 -28.17,0.801 -16.46,0 -27.63,-0.809 -29.21,-0.809 -1.08,0 -1.61,0.539 -1.61,2.656 v 4.524 c 0,1.867 0.53,2.386 2.93,2.386 h 10.37 c 3.99,0 5.84,1.614 5.84,5.063 0.26,8.758 0.26,18.059 0.26,31.867 v 24.981"
             style="fill:#000000;fill-opacity:1;fill-rule:nonzero;stroke:none"
             id="path84" /><path
             d="m 3741.99,285.16 c -1.33,0.801 -1.33,2.391 -1.6,3.719 l -4.51,25.242 c -0.27,1.328 0.53,1.859 1.58,2.117 l 3.46,0.801 c 1.07,0.262 1.85,-0.258 2.4,-1.59 l 6.64,-13.019 c 5.31,-9.828 9.02,-16.469 23.13,-16.469 9.27,0 20.97,5.578 20.97,18.07 0,11.957 -5.84,18.86 -25.78,24.438 -15.66,4.511 -31.35,12.75 -31.35,33.73 0,18.332 17.29,32.422 37.19,32.422 12.76,0 19.67,-3.18 24.45,-5.582 3.99,-1.859 4.52,-3.18 4.79,-4.777 l 3.98,-18.602 c 0,-1.058 -0.52,-1.851 -1.85,-2.379 l -3.2,-1.07 c -1.06,-0.262 -1.59,0 -2.39,1.328 l -9.02,12.242 c -3.2,5.028 -8.24,10.34 -18.59,10.34 -10.1,0 -20.47,-6.109 -20.47,-17.551 0,-15.41 12.48,-18.332 25.5,-22.039 19.4,-5.57 31.63,-13.551 31.9,-34 -0.27,-21.519 -17.81,-35.062 -40.39,-35.07 -13.03,0 -23.65,5.32 -26.84,7.699"
             style="fill:#000000;fill-opacity:1;fill-rule:nonzero;stroke:none"
             id="path86" /><path
             d="m 3870.29,285.699 c 0,-27.898 -25.76,-46.758 -31.05,-49.949 -1.6,-0.801 -3.48,-2.391 -5.33,-2.391 -2.13,0 -3.19,0.801 -3.19,2.391 0,1.59 0.28,2.129 2.39,3.988 6.38,5.84 18.86,18.864 18.86,33.473 0,3.461 -2.4,7.168 -4.53,7.969 -2.64,1.058 -15.14,4.25 -15.14,17.531 0,6.641 5.34,12.488 14.89,12.488 9.29,0 23.1,-8.758 23.1,-25.5"
             style="fill:#000000;fill-opacity:1;fill-rule:nonzero;stroke:none"
             id="path88" /><path
             d="m 4048.03,364.07 c -2.39,7.981 -23.91,74.399 -25.24,78.379 -0.8,1.871 -1.33,3.723 -2.13,3.723 -1.05,0 -2.12,-1.852 -2.91,-3.973 -1.34,-3.469 -26.58,-71.48 -28.43,-78.129 z m -62.17,-9.55 c -2.66,-6.649 -17.27,-47.04 -18.59,-52.622 -0.28,-1.847 -0.81,-4.507 -0.81,-5.839 0,-3.719 3.19,-5.848 9.05,-5.848 l 12.48,0.008 c 1.85,0 2.67,-0.52 2.67,-1.86 v -6.097 c 0,-1.871 -0.82,-2.403 -2.14,-2.403 -3.72,0 -14.61,0.801 -30.28,0.801 -19.41,0 -25.25,-0.808 -28.96,-0.808 -1.33,0 -1.88,0.539 -1.88,2.128 v 6.372 c 0,1.347 1.08,1.859 2.15,1.859 h 9.28 c 7.99,0 11.7,3.73 15.43,12.23 1.85,4.25 21.25,53.399 28.94,75.188 1.86,5.32 23.38,62.43 25.76,69.621 0.81,2.641 2.13,6.09 0.28,9.02 -0.8,1.062 -1.86,2.378 -1.86,3.46 0,0.801 0.53,1.852 2.39,2.379 7.44,1.602 19.12,9.571 22.05,13.289 1.32,1.34 2.13,2.391 3.45,2.391 1.59,0 2.13,-1.598 2.93,-4.519 5.04,-16.731 25.76,-76.239 30.82,-93.25 6.1,-20.7 23.38,-70.141 27.11,-77.821 4.5,-8.777 11.41,-11.969 18.07,-11.969 h 8.75 c 1.6,0 2.13,-0.8 2.13,-1.859 v -6.652 c 0,-1.321 -0.8,-1.86 -2.66,-1.86 -4.78,0 -10.35,0.801 -31.87,0.801 -22.07,0 -31.35,-0.801 -37.46,-0.801 -1.33,0 -2.13,0.801 -2.13,2.403 v 6.109 c 0,1.59 0.8,1.859 2.38,1.859 h 6.66 c 7.44,0 9.82,2.649 7.95,10.09 -2.11,9.559 -13.01,43.578 -16.74,54.2 h -65.35"
             style="fill:#000000;fill-opacity:1;fill-rule:nonzero;stroke:none"
             id="path90" /><path
             d="m 4148.18,351.34 c 0,13.531 -2.13,16.211 -9.57,20.191 l -5.06,2.66 c -1.58,0.528 -2.1,0.797 -2.1,1.848 v 1.602 c 0,1.07 0.52,1.589 2.1,2.398 l 26.31,13.543 c 1.59,0.797 2.66,1.066 3.73,1.066 1.59,0 1.86,-1.597 1.86,-3.187 l 1.33,-18.34 h 1.05 c 7.97,12.219 20.45,23.129 31.88,23.129 9.04,0 13.55,-5.602 13.55,-11.691 0,-7.707 -6.37,-13.028 -11.15,-13.028 -2.91,0 -5.59,1.071 -7.72,2.11 -2.1,1.347 -5.31,2.14 -8.75,2.14 -4.25,0 -11.17,-2.66 -15.68,-11.16 -1.58,-2.922 -2.66,-7.711 -2.66,-8.5 V 300.32 c 0,-8.23 1.86,-10.89 7.45,-10.89 h 12.48 c 1.6,0 1.85,-0.809 1.85,-2.379 v -4.781 c 0,-1.598 -0.25,-2.399 -1.31,-2.399 -1.6,0 -13.82,0.789 -28.16,0.789 -16.48,0 -27.64,-0.801 -29.24,-0.801 -1.05,0 -1.58,0.551 -1.58,2.672 v 4.52 c 0,1.859 0.53,2.379 2.93,2.379 h 10.35 c 3.98,0 5.86,1.601 5.86,5.039 0.25,8.781 0.25,18.09 0.25,31.902 v 24.969"
             style="fill:#000000;fill-opacity:1;fill-rule:nonzero;stroke:none"
             id="path92" /><path
             d="m 4258.69,313.891 c 0,-19.93 9.02,-23.391 13.81,-23.391 6.11,0 13.81,1.07 17.52,3.461 1.35,0.801 2.4,0.527 3.2,-0.531 l 1.33,-2.391 c 0.8,-1.059 0.27,-2.129 -0.53,-2.918 -2.65,-2.66 -13.55,-10.633 -29.49,-10.633 -13.03,0 -25.78,12.492 -25.78,22.582 0,10.891 0.8,34.27 0.8,37.989 v 5.851 c 0,4.77 0.27,22.57 0.55,33.731 h -16.21 c -2.41,0 -4.01,1.07 -4.01,3.199 0,2.121 1.6,2.922 4.79,4.781 6.38,3.719 26.83,24.438 30.29,33.469 0.8,2.129 2.11,2.66 3.71,2.66 2.13,0 2.68,-1.871 2.68,-3.988 L 4260,391.461 h 36.93 c 1.61,0 2.39,-1.32 1.86,-2.391 l -2.64,-9.3 c -0.27,-1.321 -0.82,-2.122 -2.4,-2.122 h -34.28 c -0.52,-12.218 -0.8,-24.968 -0.8,-37.187 l 0.02,-26.57"
             style="fill:#000000;fill-opacity:1;fill-rule:nonzero;stroke:none"
             id="path94" /><path
             d="m 4313.14,285.199 c -1.32,0.789 -1.32,2.379 -1.6,3.711 l -4.51,25.25 c -0.27,1.32 0.53,1.852 1.58,2.11 l 3.46,0.808 c 1.07,0.262 1.88,-0.269 2.4,-1.598 l 6.64,-13.019 c 5.32,-9.832 9.03,-16.473 23.11,-16.473 9.3,0 20.99,5.582 20.99,18.071 0,11.961 -5.83,18.863 -25.78,24.441 -15.68,4.512 -31.34,12.75 -31.34,33.73 0,18.329 17.26,32.418 37.18,32.418 12.76,0 19.67,-3.179 24.46,-5.578 3.98,-1.859 4.51,-3.179 4.78,-4.781 l 3.99,-18.59 c 0,-1.07 -0.55,-1.859 -1.88,-2.398 l -3.18,-1.063 c -1.06,-0.258 -1.58,0 -2.39,1.332 l -9.04,12.231 c -3.18,5.039 -8.24,10.347 -18.59,10.347 -10.1,0 -20.45,-6.109 -20.45,-17.527 0,-15.422 12.46,-18.332 25.51,-22.051 19.37,-5.582 31.6,-13.558 31.87,-34.011 -0.27,-21.52 -17.81,-35.059 -40.39,-35.059 -13.01,0 -23.63,5.309 -26.82,7.699"
             style="fill:#000000;fill-opacity:1;fill-rule:nonzero;stroke:none"
             id="path96" /><path
             d="m 4528.69,339.141 c -9.55,-7.18 -35.6,-12.493 -35.58,-34.539 0,-9.832 5.84,-14.614 13.8,-14.614 7.72,0 21.78,9.313 21.78,16.473 z m 19.4,-26.832 c 0,-15.137 3.2,-19.93 7.96,-19.93 4.26,0 7.99,2.121 9.32,3.992 1.06,1.34 1.58,1.848 2.66,1.059 l 2.63,-2.129 c 0.8,-0.801 1.35,-2.121 -0.25,-4.77 -2.13,-3.992 -7.17,-13.019 -20.72,-13.019 -9.57,-0.012 -16.47,6.898 -18.87,17.789 h -0.53 c -5.58,-6.653 -14.35,-12.211 -26.31,-16.199 -5.03,-1.602 -9.82,-1.602 -15.66,-1.602 -6.37,0 -15.94,5.309 -15.94,22.039 0,12.242 5.57,22.859 26.55,32.16 11.97,5.321 25.78,11.692 30.03,15.41 v 17 c -0.54,4.512 -0.8,11.442 -3.73,14.879 -2.91,3.453 -8.22,5.852 -15.93,5.852 -5.32,0 -13.56,-2.129 -17.27,-5.57 -3.71,-3.469 -1.33,-7.442 -1.33,-12.239 0,-9.301 -3.18,-15.14 -14.08,-15.14 -4.26,-0.012 -6.39,2.398 -6.39,8.5 0,8.507 7.45,18.597 18.34,24.968 11.18,6.653 20.47,9.313 32.43,9.313 12.48,0 17.52,-3.723 21.25,-7.184 5.58,-5.578 5.84,-11.679 5.84,-18.859 V 328 312.309"
             style="fill:#000000;fill-opacity:1;fill-rule:nonzero;stroke:none"
             id="path98" /><path
             d="m 4688.63,295.051 c 0,-4.242 2.39,-5.59 5.84,-5.59 h 8.5 c 2.38,0 2.93,-0.789 2.93,-2.383 v -4.246 c 0,-1.863 -0.55,-2.922 -2.13,-2.922 -1.86,0 -10.1,0.789 -25.23,0.789 -13.56,-0.008 -22.06,-0.808 -23.93,-0.808 -1.6,0 -2.13,0.8 -2.13,2.929 v 4.258 c 0,1.863 0.82,2.383 3.48,2.383 h 7.69 c 2.93,0 5.04,1.34 5.31,6.109 0.26,6.918 0.53,15.418 0.53,22.328 v 35.071 c 0,10.613 0,18.332 -7.69,23.902 -6.39,4.789 -12.76,4.789 -19.4,4.789 -4.26,0 -13.57,-1.871 -21.52,-10.359 -5.31,-5.852 -6.11,-13.02 -6.11,-18.082 v -54.981 c 0,-7.187 0.8,-8.777 6.38,-8.777 h 6.64 c 2.13,0 2.64,-0.789 2.64,-2.652 v -4.52 c 0,-1.598 -0.51,-2.398 -1.86,-2.398 -1.85,0 -9.02,0.8 -23.1,0.781 -13.56,0 -22.05,-0.781 -23.65,-0.781 -1.33,0 -1.86,0.781 -1.86,2.398 v 4.781 c 0,1.602 0.53,2.391 2.66,2.391 h 7.71 c 3.44,0 5.31,0.789 5.31,5.32 v 62.141 c 0,8 -4.25,12.5 -10.89,15.699 l -2.13,1.059 c -1.86,0.789 -2.13,1.57 -2.13,2.39 v 1.321 c 0,1.339 1.05,2.14 2.38,2.668 l 22.85,12.742 c 2.13,1.07 3.73,1.879 4.77,1.879 1.35,0 1.87,-1.071 2.15,-3.2 l 1.85,-16.218 h 0.53 c 7.71,9.57 23.12,19.418 36.41,19.418 7.96,0 16.21,-1.602 22.57,-5.852 7.97,-5.308 14.61,-18.609 14.61,-25.246 l 0.02,-68.531"
             style="fill:#000000;fill-opacity:1;fill-rule:nonzero;stroke:none"
             id="path100" /><path
             d="m 4804.71,358.281 c 0,3.719 0,8.77 -2.39,13.028 -3.71,7.191 -12.22,14.339 -27.91,14.339 -8.24,0 -17.24,-2.398 -24.16,-9.566 -10.37,-11.16 -12.22,-25.23 -12.22,-35.344 0,-30.019 20.74,-51.789 36.13,-51.789 14.88,0 26.31,7.711 28.97,14.602 1.32,4 1.6,6.121 1.6,9.039 z m 0,84.231 c 0,10.097 -1.88,13.269 -16.74,15.668 -1.6,0.269 -1.86,0.789 -1.86,1.871 v 4.5 c 0,1.07 0.53,1.59 2.11,1.871 10.37,2.117 24.18,4.519 29.24,5.566 2.38,0.282 4.24,0.801 6.09,0.801 1.33,0 1.61,-1.848 1.33,-4.769 -0.78,-13.27 -1.03,-51.821 -1.03,-85.559 v -58.699 c 0,-9.84 0.53,-21.512 2.65,-24.184 2.39,-2.668 7.97,-4.269 11.68,-4.508 3.73,-0.281 4.81,-0.55 5.32,-1.871 l 0.54,-2.129 c 0.26,-1.59 -0.27,-2.398 -1.85,-2.929 l -30.02,-10.082 c -1.6,-0.528 -2.93,0.269 -3.48,2.132 l -3.44,11.68 c -8.49,-8.5 -25.5,-14.351 -39.06,-14.351 -8.77,0 -18.87,-0.54 -31.35,12.23 -13.55,13.281 -16.73,25.219 -16.73,43.02 0,16.48 6.11,32.691 18.59,45.179 10.35,11.153 24.71,16.742 39.59,16.742 10.88,0 20.45,-1.589 28.42,-4 v 51.821"
             style="fill:#000000;fill-opacity:1;fill-rule:nonzero;stroke:none"
             id="path102" /><path
             d="m 4944.18,290.551 c -3.18,2.39 -4.79,3.187 -6.11,3.187 -1.61,-0.008 -2.66,-1.867 -4.24,-4.527 -1.6,-2.91 -2.93,-3.172 -4.79,-3.172 -1.6,0 -2.93,1.301 -2.4,4.242 1.07,6.641 3.71,40.367 4.51,48.09 0.28,1.59 0.8,1.59 1.88,1.59 l 3.96,-0.27 c 1.08,0.008 1.6,-0.519 1.6,-2.113 0.28,-8.508 0.8,-17.269 9.57,-30.816 7.97,-12.492 22.58,-19.66 37.19,-19.66 15.96,0 36.13,9.82 36.13,33.738 0,27.371 -19.64,37.449 -40.89,44.89 -8.25,2.93 -27.39,9.571 -38.79,21.532 -8.77,8.758 -13.3,21.25 -13.3,38.777 0,13.289 8.24,26.301 16.46,34.02 9.57,9.023 22.85,12.75 37.21,12.75 15.13,0 26.83,-4.52 31.35,-6.649 2.4,-1.32 3.71,-1.051 5.03,0.281 l 3.46,3.18 c 1.35,1.051 2.13,1.598 3.46,1.598 1.33,0 2.13,-2.137 2.13,-4.52 0,-9.301 3.45,-36.398 3.73,-42.238 0,-1.34 -0.28,-1.859 -1.35,-2.141 l -3.18,-0.781 c -0.8,-0.269 -1.33,0 -1.59,0.781 -2.12,7.719 -5.58,18.071 -16.48,29.5 -7.17,7.692 -16.46,11.418 -28.96,11.418 -23.64,0 -32.13,-17.539 -32.13,-31.078 0,-7.441 1.58,-16.211 8.22,-23.121 7.71,-7.699 22.6,-13.539 30.29,-15.937 18.34,-5.84 33.21,-10.364 42.78,-22.051 6.89,-8.231 11.7,-18.59 11.7,-36.129 0,-31.363 -19.15,-58.192 -54.2,-58.192 -18.6,0 -31.63,5.579 -42.25,13.821"
             style="fill:#000000;fill-opacity:1;fill-rule:nonzero;stroke:none"
             id="path104" /><path
             d="m 5084.96,345.02 c 0,-14.348 6.39,-30.559 13.56,-40.379 8.77,-11.43 19.94,-13.559 28.96,-13.559 13.28,0 20.2,2.93 29.22,11.438 0.55,0.531 1.35,0.8 2.13,0 l 2.65,-2.661 c 1.06,-1.058 1.33,-1.847 0,-3.449 -7.69,-8.769 -24.7,-18.859 -42.77,-18.859 -14.08,0 -28.96,3.168 -41.17,18.578 -9.84,13.019 -11.95,24.172 -11.97,36.141 0,31.082 21.77,62.429 56.85,62.429 27.64,0.012 36.13,-15.929 36.13,-21.519 -0.25,-6.102 -4.23,-9.289 -9.82,-9.289 -6.11,0 -10.62,3.441 -14.61,10.609 -5.84,10.898 -11.42,11.699 -17.79,11.699 -15.16,0 -31.37,-13.82 -31.37,-41.179"
             style="fill:#000000;fill-opacity:1;fill-rule:nonzero;stroke:none"
             id="path106" /><path
             d="m 5177.42,439.07 c 0,6.641 5.57,13.809 16.19,13.809 9.3,0 13.83,-7.168 13.83,-13.008 0,-6.902 -4.78,-14.621 -15.41,-14.621 -5.86,0 -14.61,5.328 -14.61,13.82 m 11.96,-81.019 c 0,9.027 -1.61,13.808 -14.89,15.929 -1.85,0.282 -2.38,0.801 -2.38,1.872 v 2.378 c 0,0.801 0.53,1.34 1.85,1.872 8.5,3.179 18.6,7.429 28.7,13.007 2.13,1.071 3.43,1.61 5.04,1.61 1.32,0 1.6,-1.34 1.32,-3.207 -0.52,-4.512 -0.52,-21.25 -0.52,-43.301 v -28.93 c 0,-10.383 0,-19.941 0.27,-22.859 0.53,-5.051 1.33,-6.934 4.26,-6.934 h 12.2 c 2.13,0 2.66,-0.789 2.66,-2.367 v -4.519 c 0,-1.872 -0.53,-2.672 -2.36,-2.672 -2.15,0 -14.36,0.8 -25.53,0.8 -15.41,0 -25.76,-0.808 -28.69,-0.808 -1.33,0 -2.13,0.547 -2.13,2.129 v 5.308 c 0,1.602 0.8,2.129 2.66,2.129 h 13.02 c 2.91,0 3.99,1.082 4.26,5.313 0.26,7.98 0.26,16.219 0.26,24.187 v 39.063"
             style="fill:#000000;fill-opacity:1;fill-rule:nonzero;stroke:none"
             id="path108" /><path
             d="m 5303.34,359.371 c 5.04,0 7.19,1.328 7.19,3.731 0,6.117 -3.21,23.648 -20.47,23.648 -11.7,0 -22.85,-7.719 -27.89,-27.379 z m -42.25,-7.961 c -0.52,-2.398 -0.8,-6.648 -0.8,-12.75 0,-26.039 16.49,-45.691 37.74,-45.691 16.21,0 27.63,9.293 32.17,18.062 0.5,1.059 1.58,1.59 2.38,1.321 l 3.46,-1.852 c 0.8,-0.281 1.32,-1.07 0,-4 -4.81,-10.609 -18.62,-28.949 -42.25,-28.949 -15.16,0 -31.9,4.519 -41.72,18.871 -9.3,13.539 -11.7,23.367 -11.7,41.969 0,10.359 2.68,28.148 16.74,42.23 11.44,11.688 24.71,14.098 38.01,14.098 30.54,0 39.04,-28.699 39.04,-39.071 0,-3.718 -3.18,-4.238 -7.44,-4.238 h -65.63"
             style="fill:#000000;fill-opacity:1;fill-rule:nonzero;stroke:none"
             id="path110" /><path
             d="m 5460.08,295.102 c 0,-4.25 2.4,-5.59 5.86,-5.59 h 8.49 c 2.39,0 2.93,-0.801 2.93,-2.383 v -4.258 c 0,-1.851 -0.54,-2.922 -2.15,-2.922 -1.85,0 -10.07,0.789 -25.23,0.789 -13.53,0 -22.05,-0.797 -23.91,-0.797 -1.6,0 -2.12,0.797 -2.12,2.918 v 4.27 c 0,1.851 0.8,2.383 3.45,2.383 h 7.72 c 2.91,0 5.04,1.34 5.31,6.109 0.25,6.918 0.53,15.418 0.53,22.328 v 35.071 c 0,10.609 0,18.332 -7.72,23.902 -6.36,4.789 -12.75,4.789 -19.39,4.789 -4.24,0 -13.56,-1.871 -21.53,-10.359 -5.29,-5.852 -6.09,-13.024 -6.09,-18.09 V 298.27 c 0,-7.168 0.8,-8.758 6.37,-8.758 h 6.66 c 2.11,0 2.63,-0.801 2.63,-2.653 v -4.519 c 0,-1.602 -0.52,-2.399 -1.85,-2.399 -1.86,0 -9.02,0.778 -23.13,0.778 -13.53,0 -22.03,-0.778 -23.63,-0.778 -1.33,0 -1.85,0.778 -1.85,2.391 v 4.789 c 0,1.59 0.52,2.391 2.65,2.391 h 7.7 c 3.45,0 5.33,0.789 5.33,5.308 l -0.02,62.149 c 0,7.992 -4.24,12.5 -10.88,15.703 l -2.13,1.047 c -1.87,0.801 -2.13,1.582 -2.13,2.402 v 1.32 c 0,1.34 1.06,2.137 2.39,2.668 l 22.85,12.743 c 2.13,1.078 3.73,1.867 4.76,1.867 1.35,0 1.88,-1.078 2.15,-3.188 l 1.86,-16.23 h 0.52 c 7.72,9.578 23.11,19.429 36.41,19.429 7.97,0 16.21,-1.609 22.58,-5.851 7.97,-5.32 14.61,-18.609 14.61,-25.25 v -68.527"
             style="fill:#000000;fill-opacity:1;fill-rule:nonzero;stroke:none"
             id="path112" /><path
             d="m 5508.95,345.051 c 0,-14.352 6.38,-30.563 13.55,-40.379 8.77,-11.434 19.94,-13.551 28.96,-13.551 13.29,0 20.2,2.918 29.24,11.418 0.53,0.539 1.33,0.801 2.11,0 l 2.66,-2.66 c 1.07,-1.059 1.33,-1.859 0,-3.449 -7.7,-8.77 -24.71,-18.86 -42.77,-18.86 -14.07,-0.011 -28.97,3.192 -41.18,18.59 -9.84,13.02 -11.95,24.18 -11.97,36.129 0,31.09 21.8,62.441 56.86,62.441 27.63,0 36.13,-15.941 36.13,-21.519 -0.25,-6.109 -4.24,-9.301 -9.83,-9.301 -6.09,0 -10.62,3.461 -14.6,10.629 -5.84,10.891 -11.43,11.691 -17.8,11.691 -15.15,0 -31.36,-13.82 -31.36,-41.179"
             style="fill:#000000;fill-opacity:1;fill-rule:nonzero;stroke:none"
             id="path114" /><path
             d="m 5659.04,359.398 c 5.06,0 7.19,1.321 7.19,3.723 0,6.117 -3.18,23.649 -20.47,23.649 -11.68,0 -22.85,-7.719 -27.89,-27.372 z m -42.22,-7.968 c -0.55,-2.391 -0.8,-6.641 -0.8,-12.758 0,-26.024 16.46,-45.684 37.71,-45.684 16.21,0 27.66,9.301 32.15,18.063 0.55,1.07 1.6,1.597 2.4,1.32 l 3.46,-1.851 c 0.8,-0.27 1.33,-1.071 0,-3.989 -4.79,-10.621 -18.6,-28.953 -42.25,-28.953 -15.13,0 -31.89,4.512 -41.72,18.863 -9.27,13.528 -11.68,23.368 -11.68,41.969 0,10.352 2.66,28.16 16.74,42.238 11.43,11.692 24.71,14.09 37.99,14.09 30.55,0.012 39.04,-28.687 39.04,-39.058 0,-3.719 -3.18,-4.239 -7.44,-4.239 l -65.6,-0.011"
             style="fill:#000000;fill-opacity:1;fill-rule:nonzero;stroke:none"
             id="path116" /><path
             d="m 5714.04,285.281 c -1.33,0.789 -1.33,2.391 -1.6,3.707 l -4.51,25.262 c -0.27,1.32 0.53,1.84 1.6,2.121 l 3.44,0.801 c 1.07,0.258 1.87,-0.293 2.4,-1.602 l 6.64,-13.019 c 5.31,-9.84 9.04,-16.481 23.11,-16.481 9.31,0 20.99,5.59 20.99,18.071 0,11.949 -5.84,18.871 -25.76,24.441 -15.68,4.52 -31.37,12.758 -31.37,33.738 0,18.328 17.27,32.418 37.21,32.43 12.74,0 19.65,-3.199 24.44,-5.578 3.98,-1.871 4.51,-3.203 4.78,-4.801 l 3.98,-18.59 c 0,-1.062 -0.54,-1.859 -1.85,-2.371 l -3.2,-1.09 c -1.06,-0.261 -1.59,0 -2.39,1.34 l -9.02,12.219 c -3.2,5.051 -8.26,10.359 -18.61,10.359 -10.1,0 -20.47,-6.109 -20.47,-17.527 0,-15.422 12.5,-18.332 25.53,-22.051 19.39,-5.59 31.6,-13.551 31.87,-34.012 -0.25,-21.519 -17.81,-35.058 -40.37,-35.058 -13.01,0 -23.65,5.301 -26.84,7.691"
             style="fill:#000000;fill-opacity:1;fill-rule:nonzero;stroke:none"
             id="path118" /><path
             d="m 2045.66,1293.93 c 0,-10.57 0.82,-148.97 1.64,-199.44 0,-16.29 3.27,-29.3 13.85,-45.58 13.03,-17.1 45.57,-26.05 86.29,-26.05 83.03,0 150.59,35.83 191.29,87.93 34.2,42.34 59.41,109.09 59.41,183.17 0,63.5 -27.69,136.75 -66.75,179.9 -42.35,46.38 -113.99,78.14 -204.34,78.14 -17.91,0 -51.27,0 -65.12,-8.14 -11.4,-7.34 -14.64,-20.36 -15.47,-38.27 -0.82,-34.2 -0.8,-140.83 -0.8,-153.85 z m -74.88,78.96 c -0.02,21.16 -2.46,136.77 -4.08,150.59 -2.46,19.55 -13.05,22.81 -35,22.81 l -44.79,-0.01 c -4.08,0 -6.5,0.82 -6.5,5.69 v 21.98 c 0,3.26 2.42,4.08 5.68,4.08 10.59,0.01 46.41,-2.44 119.67,-2.44 21.15,0.01 102.58,2.46 121.29,2.46 105.02,0 192.95,-12.21 264.59,-73.26 52.91,-45.58 90.35,-113.16 90.35,-207.57 0,-93.63 -26.85,-155.48 -80.56,-214.11 -78.15,-86.294 -190.51,-86.294 -253.19,-86.301 -51.29,0 -113.14,2.437 -149.76,2.437 -70.82,-0.008 -103.4,-2.437 -114.79,-2.449 -4.06,0 -5.7,1.633 -5.7,5.703 v 21.16 c 0,3.25 2.44,4.88 6.5,4.88 l 54.55,0.01 c 15.47,0 24.44,6.52 26.06,19.55 2.44,17.09 5.68,200.25 5.68,263.74 v 61.05"
             style="fill:#000000;fill-opacity:1;fill-rule:nonzero;stroke:none"
             id="path120" /><path
             d="m 2785.84,1176.76 c -0.02,90.35 -65.96,147.32 -107.48,147.32 -21.97,0 -43.15,-4.87 -62.68,-26.04 -31.73,-32.56 -43.14,-65.93 -43.12,-127.81 0,-45.58 4.88,-76.52 30.94,-113.96 18.73,-26.88 42.32,-42.32 80.58,-42.32 61.88,0 101.76,75.71 101.76,162.81 m -235.25,-131.08 c -37.46,44.77 -44.79,74.89 -44.81,132.69 0,41.51 21.99,93.6 70,131.06 42.35,32.56 82.23,39.08 109.08,39.08 44.79,0.01 89.55,-22.8 114.01,-47.2 36.62,-37.44 55.35,-79.79 55.35,-132.7 0,-88.73 -79.79,-179.079 -179.88,-179.098 -39.09,0 -89.55,15.468 -123.75,56.168"
             style="fill:#000000;fill-opacity:1;fill-rule:nonzero;stroke:none"
             id="path122" /><path
             d="m 2919.06,1215.84 c -0.02,41.52 -6.52,49.66 -29.31,61.86 l -15.47,8.14 c -4.89,1.64 -6.51,2.45 -6.51,5.7 v 4.89 c 0,3.26 1.62,4.88 6.51,7.33 l 80.58,41.51 c 4.89,2.44 8.15,3.27 11.41,3.27 4.88,0 5.68,-4.9 5.68,-9.77 l 4.09,-56.17 h 3.26 c 24.41,37.44 62.67,70.82 97.67,70.82 27.68,0 41.53,-17.09 41.53,-35.81 0,-23.62 -19.54,-39.9 -34.18,-39.9 -8.97,0 -17.11,3.27 -23.62,6.52 -6.5,4.07 -16.29,6.51 -26.87,6.51 -13.01,0 -34.18,-8.14 -48.03,-34.2 -4.86,-8.95 -8.12,-23.6 -8.12,-26.04 v -170.96 c 0,-25.23 5.7,-33.37 22.81,-33.37 h 38.26 c 4.86,0 5.68,-2.44 5.68,-7.32 v -14.65 c 0,-4.891 -0.82,-7.337 -4.06,-7.337 -4.88,0 -42.34,2.434 -86.31,2.434 -50.47,0 -84.65,-2.442 -89.53,-2.442 -3.26,0 -4.88,1.622 -4.88,8.145 v 13.84 c 0,5.69 1.62,7.32 8.94,7.32 l 31.76,0.01 c 12.21,0 17.91,4.88 17.91,15.46 0.8,26.85 0.8,55.36 0.8,97.69 v 76.52"
             style="fill:#000000;fill-opacity:1;fill-rule:nonzero;stroke:none"
             id="path124" /><path
             d="m 3466.09,1043.29 c 0,-13.02 7.33,-17.09 17.91,-17.09 h 26.06 c 7.32,0 8.94,-2.45 8.94,-7.33 v -13.02 c 0,-5.68 -1.62,-8.948 -6.5,-8.948 -5.7,0 -30.94,2.434 -77.34,2.434 -41.53,0 -67.58,-2.449 -73.27,-2.449 -4.88,0 -6.52,2.449 -6.52,8.943 v 13.04 c 0,5.69 2.44,7.32 10.59,7.32 h 23.61 c 8.97,0 15.47,4.08 16.29,18.72 0.8,21.18 1.6,47.22 1.6,68.38 v 107.46 c 0,32.56 0,56.18 -23.61,73.27 -19.53,14.65 -39.06,14.65 -59.42,14.65 -13.02,0 -41.5,-5.71 -65.93,-31.76 -16.29,-17.91 -18.71,-39.89 -18.71,-55.35 v -168.51 c 0,-21.99 2.44,-26.87 19.53,-26.87 h 20.35 c 6.5,0 8.14,-2.44 8.14,-8.14 v -13.83 c 0,-4.874 -1.64,-7.323 -5.7,-7.323 -5.7,0 -27.68,2.422 -70.8,2.422 -41.52,0 -67.58,-2.434 -72.48,-2.434 -4.06,0 -5.69,2.434 -5.69,7.325 v 14.65 c 0,4.88 1.63,7.33 8.15,7.33 h 23.59 c 10.59,0 16.29,2.45 16.29,16.28 v 190.48 c -0.02,24.44 -13.03,38.27 -33.4,48.03 l -6.5,3.26 c -5.7,2.44 -6.52,4.88 -6.52,7.33 v 4.08 c 0,4.06 3.26,6.49 7.34,8.13 l 70,39.08 c 6.5,3.26 11.39,5.7 14.65,5.7 4.08,0 5.7,-3.26 6.52,-9.77 l 5.7,-49.66 h 1.63 c 23.61,29.31 70.82,59.44 111.52,59.44 24.41,0 49.65,-4.88 69.2,-17.91 24.41,-16.27 44.76,-56.98 44.76,-77.33 l 0.02,-210.03"
             style="fill:#000000;fill-opacity:1;fill-rule:nonzero;stroke:none"
             id="path126" /><path
             d="m 3549.2,1013.18 c -4.06,2.43 -4.06,7.32 -4.88,11.39 l -13.85,77.34 c -0.82,4.07 1.62,5.69 4.88,6.51 l 10.59,2.44 c 3.26,0.82 5.7,-0.81 7.32,-4.88 l 20.35,-39.89 c 16.29,-30.11 27.68,-50.48 70.84,-50.46 28.48,0 64.3,17.08 64.3,55.35 0,36.64 -17.91,57.8 -78.96,74.89 -48.05,13.84 -96.08,39.07 -96.08,103.38 0,56.18 52.91,99.32 113.97,99.32 39.06,0 60.23,-9.75 74.88,-17.09 12.23,-5.7 13.85,-9.77 14.67,-14.66 l 12.2,-56.98 c 0,-3.25 -1.62,-5.69 -5.68,-7.32 l -9.77,-3.26 c -3.26,-0.81 -4.9,0 -7.34,4.07 l -27.68,37.45 c -9.76,15.46 -25.23,31.74 -56.99,31.74 -30.92,0 -62.67,-18.72 -62.67,-53.72 0.02,-47.22 38.26,-56.17 78.16,-67.57 59.43,-17.09 96.88,-41.51 97.7,-104.19 -0.8,-65.93 -54.53,-107.462 -123.73,-107.47 -39.89,0 -72.47,16.28 -82.23,23.61"
             style="fill:#000000;fill-opacity:1;fill-rule:nonzero;stroke:none"
             id="path128" /><path
             d="m 3795.9,1484.52 c 0,20.36 17.09,42.34 49.65,42.34 28.47,0 42.34,-21.98 42.34,-39.89 0,-21.16 -14.67,-44.76 -47.23,-44.76 -17.91,0 -44.76,16.27 -44.76,42.31 m 36.64,-248.28 c 0,27.69 -4.88,42.33 -45.59,48.85 -5.7,0.82 -7.32,2.43 -7.32,5.69 v 7.33 c 0,2.45 1.62,4.08 5.68,5.69 26.06,9.79 56.99,22.8 87.91,39.9 6.53,3.26 10.61,4.89 15.49,4.89 4.06,0 4.88,-4.07 4.06,-9.76 -1.64,-13.85 -1.62,-65.14 -1.62,-132.7 v -88.74 c 0,-31.75 0.02,-61.04 0.82,-70 1.62,-15.46 4.08,-21.17 13.03,-21.17 l 37.46,0.01 c 6.5,0 8.13,-2.45 8.13,-7.32 v -13.85 c 0,-5.697 -1.63,-8.134 -7.33,-8.134 -6.5,-0.012 -43.94,2.437 -78.14,2.429 -47.21,0 -78.97,-2.441 -87.91,-2.441 -4.08,0 -6.53,1.621 -6.53,6.516 v 16.28 c 0,4.87 2.45,6.5 8.15,6.5 h 39.88 c 8.97,0 12.23,3.26 13.03,16.28 0.82,24.42 0.82,49.68 0.82,74.09 l -0.02,119.66"
             style="fill:#000000;fill-opacity:1;fill-rule:nonzero;stroke:none"
             id="path130" /><path
             d="m 4037.66,1299.75 h -56.18 c -4.06,0 -5.7,1.62 -4.06,8.95 l 3.26,24.41 c 0.8,4.9 3.25,5.72 9.75,5.72 h 47.23 v 15.47 c 0,80.59 22.77,133.5 54.53,169.33 43.14,47.2 87.91,64.3 133.51,64.31 38.25,0 74.09,-14.65 74.09,-45.58 0,-19.54 -21.18,-35 -34.2,-35 -8.15,0 -16.29,1.6 -22.8,4.87 -7.34,4.07 -16.29,14.65 -19.53,18.73 -10.58,13.02 -21.99,18.71 -37.46,18.71 -21.15,0 -43.14,-5.69 -61.05,-28.49 -30.12,-38.26 -28.5,-109.08 -28.48,-166.07 v -16.28 l 98.5,0.01 c 5.7,0 6.5,-4.89 5.7,-8.14 l -4.06,-26.86 c -0.82,-3.27 -4.09,-4.07 -10.59,-4.07 l -89.55,-0.01 v -72.46 c 0,-96.05 0.02,-170.94 0.84,-179.9 1.62,-13.85 4.08,-21.18 21.17,-21.18 l 46.39,0.02 c 7.34,0 8.96,-1.63 8.96,-6.51 v -13.03 c 0,-6.51 -1.62,-9.766 -5.72,-9.766 -4.86,0 -35,2.429 -97.68,2.429 -44.76,0 -86.28,-2.437 -92.79,-2.437 -4.88,0 -6.5,1.621 -6.5,5.694 v 17.91 c 0,4.07 1.62,5.69 8.14,5.69 h 39.06 c 15.47,0 18.74,9.78 19.54,28.5 v 153.05 l -0.02,91.98"
             style="fill:#000000;fill-opacity:1;fill-rule:nonzero;stroke:none"
             id="path132" /><path
             d="m 4381.48,1240.34 c 15.49,0.01 22,4.09 22,11.42 0,18.72 -9.79,72.44 -62.7,72.44 -35.82,-0.01 -70,-23.61 -85.47,-83.87 z m -129.43,-24.42 c -1.6,-7.33 -2.44,-20.36 -2.42,-39.08 0,-79.77 50.47,-140.02 115.58,-140 49.65,0 84.65,28.48 98.5,55.36 1.64,3.26 4.88,4.89 7.33,4.07 l 10.58,-5.7 c 2.44,-0.81 4.06,-3.26 0,-12.2 -14.65,-32.57 -56.97,-88.753 -129.43,-88.753 -46.39,0 -97.68,13.833 -127.8,57.783 -28.49,41.52 -35.82,71.63 -35.82,128.62 0,31.75 8.13,86.29 51.27,129.45 35,35.82 75.71,43.14 116.41,43.14 93.61,0 119.67,-87.91 119.67,-119.65 0,-11.39 -9.77,-13.02 -22.79,-13.02 l -201.08,-0.02"
             style="fill:#000000;fill-opacity:1;fill-rule:nonzero;stroke:none"
             id="path134" /></g><g
           transform="matrix(0.4773321,0,0,0.4773321,1597.7048,469.73671)"
           clip-path="url(#clipPath1177)"
           id="g1016"><g
             id="g1012"><g
               id="g1173"><path
                 d="m 404.043,1505.87 c 0,27.67 -6.504,40.69 -27.676,40.69 h -37.461 c -4.883,0 -6.504,1.63 -6.504,7.33 v 18.72 c 0,4.88 1.621,6.51 8.125,6.51 8.145,0 47.227,-2.44 125.371,-2.44 68.379,0 107.461,2.44 117.207,2.44 4.903,0 6.524,-1.63 6.524,-5.69 v -20.36 c 0,-4.88 -1.621,-6.51 -6.524,-6.51 h -34.179 c -24.434,0 -39.082,-14.65 -39.903,-31.74 -0.8,-9.76 -2.441,-58.61 -2.441,-105.82 v -100.93 c 0,-40.71 0.82,-98.49 2.441,-124.53 2.461,-37.45 8.965,-74.9 28.516,-100.94 27.656,-37.44 71.621,-50.46 110.684,-50.46 37.441,0 83.047,14.65 109.082,39.06 30.918,30.94 47.207,78.15 47.207,137.56 v 146.51 c 0,65.13 -6.504,136.75 -8.965,155.48 -2.442,21.16 -15.449,35.81 -33.359,35.81 h -29.317 c -4.863,0 -6.504,2.44 -6.504,5.71 v 20.34 c 0,4.88 1.641,6.51 6.504,6.51 8.145,0 45.586,-2.44 99.317,-2.44 50.449,0 76.503,2.44 83.027,2.44 7.324,0 8.144,-2.44 8.144,-6.51 v -18.72 c 0,-4.89 -0.82,-7.33 -4.902,-7.33 H 889.18 c -29.317,0 -32.578,-22.79 -34.2,-31.74 -1.621,-9.76 -1.621,-123.73 -1.621,-134.3 0,-11.41 -1.621,-153.04 -4.902,-185.6 -4.883,-66.74 -24.414,-117.21 -68.359,-156.28 -34.18,-30.93 -86.27,-50.464 -148.164,-50.464 -39.043,0 -86.27,6.512 -117.207,19.534 -47.188,19.55 -79.747,56.98 -96.055,109.08 -11.387,35.81 -14.629,89.53 -14.629,196.17 v 192.91"
                 style="fill:#990000;fill-opacity:1;fill-rule:nonzero;stroke:none"
                 id="path136" /><path
                 d="m 946.172,1181.9 c 3.262,0 4.883,-1.63 4.883,-6.51 1.621,-26.04 8.144,-56.97 30.937,-92.79 24.418,-39.08 66.738,-58.61 107.438,-58.61 43.97,0 105.82,27.68 105.82,95.24 0,74.89 -34.2,99.29 -120.48,131.86 -26.04,9.77 -79.75,32.56 -118.832,68.37 -27.676,26.05 -40.704,66.75 -40.704,116.4 0,45.59 17.911,83.03 56.973,113.95 32.583,27.69 68.383,39.08 115.583,39.08 53.73,0 86.29,-13.03 102.56,-19.53 8.15,-3.25 13.05,-1.63 17.11,2.44 l 10.59,10.58 c 3.26,3.26 6.5,4.88 11.38,4.88 4.89,0 6.53,-4.88 6.53,-13.02 0,-13.02 13,-126.98 13,-135.12 0,-3.26 -1.62,-4.88 -4.88,-5.7 l -13.03,-4.07 c -3.24,-0.81 -6.5,0 -8.14,4.89 -8.12,22.79 -21.13,55.35 -50.45,86.28 -21.17,22.79 -47.23,34.18 -84.67,34.18 -65.11,0 -91.149,-52.09 -91.149,-82.21 0,-27.68 3.242,-52.09 22.789,-73.26 21.16,-21.16 66.74,-40.69 99.3,-50.46 47.23,-14.65 86.29,-30.93 117.23,-63.49 26.03,-27.68 40.68,-61.87 40.68,-116.4 0,-99.3 -65.12,-180.696 -172.56,-180.696 -66.76,0 -105.818,14.646 -138.377,39.066 -9.765,6.51 -14.648,9.77 -19.531,9.77 -4.883,0 -8.125,-6.52 -13.027,-14.66 -4.883,-8.14 -8.125,-9.76 -14.649,-9.76 -6.523,0 -9.766,4.88 -9.766,13.01 1.622,9.78 13.028,141.64 14.649,151.41 0.82,4.88 1.641,6.52 4.883,6.52 l 17.91,-1.64"
                 style="fill:#990000;fill-opacity:1;fill-rule:nonzero;stroke:none"
                 id="path138" /><path
                 d="m 1833.42,1133.07 c 2.44,-2.44 3.24,-4.89 1.62,-8.15 -48.85,-70 -126.99,-136.744 -242.56,-136.744 -104.2,0 -162.79,30.934 -213.26,76.514 -60.24,53.73 -87.91,148.14 -87.91,219.77 0,79.78 26.05,156.28 83.03,218.15 43.94,47.2 113.94,86.28 211.62,86.28 74.9,0 135.13,-22.8 164.43,-39.08 11.39,-6.5 14.65,-6.5 16.27,0 l 6.52,21.17 c 1.64,4.89 3.27,4.89 13.01,4.89 9.79,0 11.41,-1.62 11.41,-13.03 0,-14.65 16.27,-144.88 19.53,-169.3 0.82,-4.9 0,-7.33 -3.26,-8.14 l -15.45,-4.88 c -4.08,-1.63 -6.51,1.63 -8.97,8.12 -9.76,29.32 -29.29,70.01 -63.49,105.82 -35.8,34.19 -78.13,60.25 -141.62,60.25 -130.24,0 -183.97,-117.22 -183.97,-234.44 0,-50.46 14.67,-146.5 74.9,-211.63 53.73,-56.97 100.92,-63.5 140,-63.5 89.55,0 160.37,44.78 194.55,94.44 4.05,5.69 7.31,8.13 9.75,5.69 l 13.85,-12.2"
                 style="fill:#990000;fill-opacity:1;fill-rule:nonzero;stroke:none"
                 id="path140" /></g></g></g></g></g></g></svg>
