<?xml version="1.0" encoding="UTF-8" standalone="no"?>
<svg
   xmlns:dc="http://purl.org/dc/elements/1.1/"
   xmlns:cc="http://creativecommons.org/ns#"
   xmlns:rdf="http://www.w3.org/1999/02/22-rdf-syntax-ns#"
   xmlns:svg="http://www.w3.org/2000/svg"
   xmlns="http://www.w3.org/2000/svg"
   xmlns:sodipodi="http://sodipodi.sourceforge.net/DTD/sodipodi-0.dtd"
   xmlns:inkscape="http://www.inkscape.org/namespaces/inkscape"
   inkscape:version="1.0 (4035a4f, 2020-05-01)"
   sodipodi:docname="PrimShield-Word_Reg_GoldOnBlack.svg"
   version="1.1"
   id="svg2"
   xml:space="preserve"
   width="185"
   height="39.924858"
   viewBox="0 0 185 39.924858"><sodipodi:namedview
     inkscape:current-layer="svg2"
     inkscape:window-maximized="0"
     inkscape:window-y="209"
     inkscape:window-x="255"
     inkscape:cy="61.780893"
     inkscape:cx="-131.62715"
     inkscape:zoom="0.83012888"
     fit-margin-bottom="0"
     fit-margin-right="0"
     fit-margin-left="0"
     fit-margin-top="0"
     showgrid="false"
     id="namedview1349"
     inkscape:window-height="747"
     inkscape:window-width="1164"
     inkscape:pageshadow="2"
     inkscape:pageopacity="0"
     guidetolerance="10"
     gridtolerance="10"
     objecttolerance="10"
     borderopacity="1"
     bordercolor="#666666"
     pagecolor="#ffffff" /><metadata
     id="metadata8"><rdf:RDF><cc:Work
         rdf:about=""><dc:format>image/svg+xml</dc:format><dc:type
           rdf:resource="http://purl.org/dc/dcmitype/StillImage" /><dc:title></dc:title></cc:Work></rdf:RDF></metadata><defs
     id="defs6" /><path
     d="M 478.31711,140.23643 H -289.68287 V -99.763569 H 478.31711 V 140.23643"
     style="fill:#000000;fill-opacity:1;fill-rule:nonzero;stroke:none;stroke-width:0.133333"
     id="path14" /><g
     transform="matrix(0.03846585,0,0,-0.03846585,-17.757413,54.660742)"
     id="g1957"><path
       id="path36"
       style="fill:#ffcc00;fill-opacity:1;fill-rule:nonzero;stroke:none"
       d="m 1415.49,1290.5 c 0,17.85 -4.22,26.27 -17.87,26.27 h -24.2 c -3.17,0 -4.24,1.06 -4.24,4.76 v 12.11 c 0,3.14 1.07,4.19 5.26,4.19 5.29,0 30.51,-1.56 81.05,-1.56 44.18,0 69.42,1.56 75.73,1.56 3.16,0 4.2,-1.05 4.2,-3.7 v -13.15 c 0,-3.15 -1.04,-4.21 -4.2,-4.21 h -22.1 c -15.79,0 -25.23,-9.43 -25.78,-20.49 -0.53,-6.34 -1.56,-37.89 -1.56,-68.38 v -65.26 c 0,-26.28 0.51,-63.65 1.56,-80.49 1.58,-24.2 5.79,-48.4 18.42,-65.25 17.91,-24.146 46.33,-32.584 71.54,-32.584 24.19,0 53.67,9.524 70.48,25.234 20.03,19.99 30.54,50.52 30.54,88.93 v 94.67 c 0,42.12 -4.23,88.43 -5.8,100.49 -1.59,13.7 -9.98,23.13 -21.57,23.13 H 1628 c -3.14,0 -4.19,1.6 -4.19,3.72 v 13.15 c 0,3.14 1.05,4.19 4.19,4.19 5.28,0 29.46,-1.56 64.21,-1.56 32.61,0 49.43,1.56 53.63,1.56 4.75,0 5.27,-1.56 5.27,-4.19 v -12.11 c 0,-3.16 -0.52,-4.76 -3.16,-4.76 h -18.92 c -18.97,0 -21.06,-14.69 -22.13,-20.49 -1.02,-6.34 -1.02,-79.95 -1.02,-86.84 0,-7.31 -1.06,-98.89 -3.15,-119.92 -3.18,-43.09 -15.82,-75.73 -44.19,-100.985 -22.1,-20 -55.79,-32.605 -95.77,-32.605 -25.24,0 -55.75,4.175 -75.74,12.605 -30.53,12.625 -51.56,36.835 -62.09,70.465 -7.36,23.19 -9.45,57.93 -9.45,126.87 v 124.63" /><path
       id="path38"
       style="fill:#ffcc00;fill-opacity:1;fill-rule:nonzero;stroke:none"
       d="m 1765.88,1081.13 c 2.08,0 3.14,-1.08 3.14,-4.22 1.07,-16.82 5.28,-36.82 20,-60.01 15.78,-25.181 43.15,-37.83 69.46,-37.83 28.38,0 68.36,17.895 68.36,61.54 0,48.37 -22.07,64.2 -77.85,85.21 -16.82,6.31 -51.55,21.07 -76.8,44.19 -17.89,16.88 -26.31,43.13 -26.31,75.23 0,29.48 11.58,53.65 36.83,73.68 21.05,17.83 44.2,25.22 74.7,25.22 34.72,0 55.77,-8.39 66.28,-12.62 5.26,-2.11 8.42,-1.03 11.06,1.58 l 6.81,6.83 c 2.12,2.11 4.22,3.14 7.39,3.14 3.16,0 4.19,-3.14 4.19,-8.38 0,-8.43 8.43,-82.06 8.43,-87.37 0,-2.08 -1.05,-3.11 -3.15,-3.68 l -8.41,-2.63 c -2.13,-0.49 -4.23,0 -5.27,3.2 -5.27,14.7 -13.69,35.76 -32.63,55.74 -13.66,14.73 -30.49,22.1 -54.7,22.1 -42.1,0 -58.93,-33.66 -58.93,-53.11 0,-17.92 2.11,-33.67 14.72,-47.35 13.71,-13.7 43.16,-26.32 64.21,-32.65 30.48,-9.46 55.74,-19.99 75.73,-41 16.82,-17.92 26.3,-40 26.3,-75.28 0,-64.15 -42.08,-116.73 -111.51,-116.73 -43.14,0 -68.4,9.441 -89.43,25.23 -6.31,4.211 -9.48,6.328 -12.62,6.328 -3.17,0 -5.26,-4.218 -8.42,-9.48 -3.16,-5.266 -5.23,-6.348 -9.47,-6.348 -4.18,0 -6.31,3.184 -6.31,8.457 1.05,6.336 8.42,91.553 9.45,97.833 0.55,3.18 1.1,4.2 3.17,4.2 l 11.58,-1.02" /><path
       id="path40"
       style="fill:#ffcc00;fill-opacity:1;fill-rule:nonzero;stroke:none"
       d="m 2349.82,1049.56 c 1.59,-1.58 2.07,-3.13 1.05,-5.24 -31.57,-45.277 -82.08,-88.39 -156.77,-88.39 -67.33,0 -105.2,20.008 -137.82,49.46 -38.94,34.68 -56.79,95.74 -56.79,141.99 0,51.57 16.8,101.04 53.64,141.01 28.39,30.5 73.64,55.75 136.77,55.75 48.41,0 87.33,-14.73 106.27,-25.25 7.34,-4.21 9.47,-4.21 10.53,0 l 4.18,13.7 c 1.06,3.11 2.11,3.11 8.42,3.11 6.32,0 7.38,-1.01 7.38,-8.4 0,-9.49 10.51,-93.62 12.62,-109.38 0.52,-3.19 0,-4.78 -2.11,-5.31 l -10,-3.17 c -2.62,-1.01 -4.2,1.09 -5.76,5.29 -6.35,18.95 -18.95,45.23 -41.04,68.4 -23.16,22.1 -50.51,38.92 -91.56,38.92 -84.14,0 -118.87,-75.75 -118.87,-151.5 0,-32.59 9.47,-94.68 48.4,-136.77 34.73,-36.815 65.22,-41.026 90.49,-41.026 57.85,0 103.6,28.916 125.72,61.016 2.62,3.7 4.73,5.25 6.32,3.7 l 8.93,-7.91" /></g><g
     transform="matrix(0.03846585,0,0,-0.03846585,-17.757413,54.660742)"
     id="g1952"><path
       id="path16"
       style="fill:#ffffff;fill-opacity:1;fill-rule:nonzero;stroke:none"
       d="m 715.273,860.352 -41.582,-0.032 c -4.902,0 -9.101,0.215 -10.3,5.774 -1.594,7.219 5.242,8.691 5.242,8.691 -0.606,-0.422 -2.285,-3.625 -0.938,-6.941 1.192,-2.973 3.672,-2.563 7.774,-2.563 l 46.496,0.063 c 0,-4.504 -6.692,-4.992 -6.692,-4.992" /><path
       id="path18"
       style="fill:#ffffff;fill-opacity:1;fill-rule:nonzero;stroke:none"
       d="m 704.043,679.699 h -20.234 c -3.438,0.039 -6.543,0.68 -7.813,4.481 -1.523,4.558 3.567,5.64 3.567,5.64 -0.391,-0.3 -1.047,-1.761 -0.11,-4.07 0.86,-2.141 2.735,-2.012 5.625,-2.031 l 23.684,-0.11 c 0.015,-3.91 -4.719,-3.91 -4.719,-3.91" /><path
       id="path20"
       style="fill:#ffffff;fill-opacity:1;fill-rule:nonzero;stroke:none"
       d="m 730.664,883.918 c 6.914,6.25 13.215,17 8.848,32.195 l -0.176,0.481 c -0.066,0.136 -6.895,17.066 -0.977,35.918 l 1.993,6.25 -6.473,-0.84 c -0.949,-0.102 -8.566,-1.289 -17.824,-10.625 -7.715,15.601 -22.422,27.223 -37.727,34.859 5.637,-17.859 6.36,-24.429 1.75,-32.066 -10.437,9.723 -23.152,11.609 -23.73,11.648 l -7.364,1.067 2.989,-6.821 c 4.715,-10.925 0.996,-18.464 -3.321,-27.285 -3.183,-6.48 -6.765,-13.797 -6.765,-22.879 0.008,-11.867 6.043,-19.465 11.746,-23.625 -4.004,-3.609 -6.563,-8.925 -6.555,-14.785 0,-7.469 3.84,-13.965 9.633,-17.222 1.894,-5.825 5.965,-10.657 11.336,-13.489 l 6.68,-134.437 c -8.164,-1.723 -14.266,-9.012 -14.258,-17.563 0,-9.258 7.019,-16.859 15.996,-17.801 l 2.683,-53.878 c 0,-7.969 6.477,-14.461 14.473,-14.418 8.332,0 14.387,6.449 14.484,14.257 l 2.415,54.09 c 9.082,0.949 16.082,8.781 16.062,17.84 0,8.723 -6.23,15.981 -14.48,17.551 l 5.984,134.137 c 5.644,2.769 9.98,7.832 11.875,13.945 5.82,3.387 9.551,10.176 9.551,17.144 0,6.555 -3.496,12.856 -8.848,16.352 m -2.312,62.715 c -2.747,-17.043 2.332,-30.942 3.152,-33.028 4.824,-17.21 -8.203,-25.16 -11.074,-26.703 l -0.41,0.118 -13.04,-0.04 c 8.157,10.665 14.68,24.614 14.68,37.063 -0.019,3.801 -0.43,7.352 -1.14,10.812 l -1.079,3.629 c 3.293,3.852 6.399,6.504 8.911,8.149 m -37.61,19.148 c 10.215,-8.254 22.832,-23.847 22.871,-41.738 0,-16.184 -13.847,-34.695 -17.168,-37.078 -2.683,3.594 -6.007,10.39 -6.047,18.074 -0.027,13.32 6.497,21.133 6.497,21.133 0,0 -9.622,-6.199 -11.043,-18.543 -0.676,-6.02 0.632,-12.363 4.714,-20.664 h -5.839 c -1.563,2.515 -12.852,16.558 -3.45,32.476 1.575,2.602 8.645,12.817 9.524,14.883 1.074,2.524 0.976,4.887 0.976,4.887 -1.172,-1.898 -3.191,-4.191 -3.191,-4.191 -2.023,-2.227 -8.945,-9.395 -11.113,-12.032 -13.489,-16.328 -0.364,-34.543 0.261,-36.054 h -5.476 c -5.988,6.867 -8,13.554 -7.395,23.625 1.348,22.586 28.575,25.41 25.879,55.222 m -40.469,-59.929 c 0,7.078 2.879,12.949 5.918,19.16 3.711,7.554 7.832,15.965 5.887,26.551 3.879,-1.504 8.82,-4.122 13.117,-8.411 -2.722,-3.289 -5.722,-6.504 -7.343,-8.484 -11.465,-13.621 -15.879,-29.813 -3.594,-47.91 h -1.746 c -0.129,0.012 -12.199,4.336 -12.239,19.094 m 49.766,-292.704 c 0,-3.589 -2.617,-6.476 -6.418,-6.476 -3.531,-0.031 -6.433,2.93 -6.433,6.449 l -2.657,53.688 h 3.36 l 1.914,-51.887 c 0,-3.922 1.836,-4.711 1.836,-4.711 l -1.036,56.598 11.836,0.019 z m 18.496,71.641 c 0,-5.32 -4.414,-9.898 -9.844,-9.898 l -30.273,-0.051 c -5.469,0 -9.922,4.43 -9.922,9.859 0,5.371 4.402,9.891 9.895,9.891 l 30.261,0.031 c 5.469,0 9.883,-4.41 9.883,-9.832 m -42.312,149.383 c 0,0 2.058,-0.317 5.437,-0.551 l 4.883,-130.992 h -3.777 z m 11.375,-0.93 c 6.164,-0.222 14.09,-0.168 22.363,0.899 l -5.918,-131.469 -14.082,-0.043 z m 20.117,8.828 -28.738,-0.027 c -4.914,-0.031 -9.336,2.32 -12.141,5.937 l 52.949,0.106 c -2.773,-3.672 -7.168,-5.984 -12.07,-6.016 m 13.652,14.016 -56.113,-0.102 c -5.332,0 -10.117,4.575 -10.156,11.457 0,6.614 4.875,11.414 10.117,11.414 l 56.125,0.04 c 5.223,0 10.105,-5.016 10.125,-11.336 0,-6.36 -4.883,-11.473 -10.098,-11.473" /><path
       id="path22"
       style="fill:#ffffff;fill-opacity:1;fill-rule:nonzero;stroke:none"
       d="m 1050.92,860.352 -41.6,-0.032 c -4.89,0 -9.09,0.215 -10.289,5.774 -1.57,7.219 5.269,8.691 5.269,8.691 -0.6,-0.422 -2.28,-3.625 -0.94,-6.941 1.21,-2.973 3.64,-2.563 7.75,-2.563 l 46.51,0.063 c 0,-4.504 -6.7,-4.992 -6.7,-4.992" /><path
       id="path24"
       style="fill:#ffffff;fill-opacity:1;fill-rule:nonzero;stroke:none"
       d="m 1039.69,679.699 h -20.23 c -3.44,0.039 -6.55,0.68 -7.8,4.481 -1.52,4.558 3.55,5.64 3.55,5.64 -0.39,-0.3 -1.07,-1.761 -0.1,-4.07 0.86,-2.141 2.75,-2.012 5.62,-2.031 l 23.68,-0.11 c 0.02,-3.91 -4.72,-3.91 -4.72,-3.91" /><path
       id="path26"
       style="fill:#ffffff;fill-opacity:1;fill-rule:nonzero;stroke:none"
       d="m 1066.31,883.918 c 6.93,6.25 13.23,17 8.88,32.195 l -0.2,0.481 c -0.07,0.136 -6.9,17.066 -0.97,35.918 l 2,6.25 -6.5,-0.84 c -0.95,-0.102 -8.56,-1.289 -17.82,-10.625 -7.7,15.601 -22.4,27.207 -37.7,34.859 5.61,-17.859 6.36,-24.429 1.74,-32.066 -10.46,9.723 -23.174,11.609 -23.736,11.648 l -7.356,1.067 2.981,-6.821 c 4.715,-10.925 0.992,-18.464 -3.32,-27.285 -3.176,-6.48 -6.789,-13.797 -6.789,-22.879 0.019,-11.882 6.074,-19.465 11.765,-23.625 -4.004,-3.64 -6.57,-8.925 -6.551,-14.785 0,-7.469 3.829,-13.965 9.629,-17.222 1.895,-5.825 5.996,-10.657 11.337,-13.489 l 6.65,-134.437 c -8.15,-1.723 -14.256,-9.012 -14.229,-17.563 0,-9.258 7.019,-16.859 15.969,-17.801 l 2.71,-53.878 c 0,-7.969 6.49,-14.461 14.48,-14.418 8.34,0 14.39,6.449 14.48,14.257 l 2.42,54.09 c 9.07,0.949 16.08,8.781 16.05,17.84 0,8.723 -6.23,15.981 -14.46,17.551 l 5.96,134.137 c 5.64,2.769 10.01,7.832 11.9,13.945 5.82,3.387 9.56,10.176 9.56,17.144 -0.03,6.555 -3.52,12.856 -8.88,16.352 m -2.27,62.715 c -2.79,-17.043 2.29,-30.942 3.11,-33.028 4.8,-17.21 -8.19,-25.16 -11.08,-26.703 l -0.37,0.118 -13.05,-0.04 c 8.13,10.665 14.65,24.614 14.65,37.063 -0.01,3.801 -0.39,7.352 -1.12,10.812 l -1.08,3.629 c 3.28,3.852 6.38,6.504 8.94,8.149 m -37.66,19.148 c 10.24,-8.254 22.88,-23.847 22.88,-41.738 0,-16.184 -13.81,-34.695 -17.17,-37.078 -2.7,3.594 -6.02,10.39 -6.04,18.074 -0.01,13.32 6.53,21.133 6.53,21.133 0,0 -9.65,-6.199 -11.06,-18.543 -0.68,-6.02 0.63,-12.363 4.73,-20.664 h -5.87 c -1.57,2.515 -12.84,16.558 -3.45,32.476 1.58,2.602 8.64,12.817 9.52,14.883 1.11,2.524 0.98,4.887 0.98,4.887 -1.16,-1.898 -3.19,-4.191 -3.19,-4.191 -2.02,-2.227 -8.94,-9.395 -11.11,-12.032 -13.501,-16.328 -0.38,-34.543 0.27,-36.054 h -5.47 c -6.02,6.867 -8.028,13.554 -7.4,23.625 1.35,22.586 28.56,25.41 25.85,55.222 m -40.442,-59.929 c 0,7.078 2.871,12.949 5.917,19.16 3.711,7.554 7.833,15.965 5.86,26.551 3.915,-1.504 8.835,-4.122 13.105,-8.411 -2.69,-3.281 -5.68,-6.504 -7.33,-8.484 -11.439,-13.621 -15.845,-29.813 -3.588,-47.91 h -1.757 c -0.098,0.012 -12.2,4.336 -12.207,19.094 M 1035.7,613.148 c 0,-3.589 -2.65,-6.476 -6.42,-6.476 -3.53,-0.031 -6.45,2.93 -6.45,6.449 l -2.65,53.688 h 3.36 l 1.91,-51.887 c 0,-3.922 1.84,-4.711 1.84,-4.711 l -1.02,56.598 11.84,0.019 z m 18.48,71.641 c 0,-5.32 -4.41,-9.898 -9.83,-9.898 l -30.29,-0.051 c -5.47,0 -9.9,4.43 -9.9,9.859 0,5.371 4.41,9.891 9.88,9.891 l 30.29,0.031 c 5.44,0 9.85,-4.41 9.85,-9.832 m -42.3,149.383 c 0,0 2.05,-0.317 5.44,-0.551 l 4.87,-130.992 h -3.77 z m 11.38,-0.93 c 6.12,-0.222 14.1,-0.168 22.35,0.899 l -5.9,-131.469 -14.08,-0.043 z m 20.12,8.828 -28.77,-0.027 c -4.91,-0.031 -9.31,2.32 -12.11,5.937 l 52.95,0.106 c -2.79,-3.672 -7.17,-5.984 -12.07,-6.016 m 13.64,14.016 -56.12,-0.102 c -5.314,0 -10.107,4.575 -10.13,11.457 0,6.614 4.855,11.414 10.11,11.414 l 56.11,0.04 c 5.22,0 10.14,-5.016 10.16,-11.336 0,-6.36 -4.92,-11.473 -10.13,-11.473" /><path
       id="path28"
       style="fill:#ffffff;fill-opacity:1;fill-rule:nonzero;stroke:none"
       d="m 913.516,869.961 c 8.535,7.187 19.445,21.269 13,43.816 l -0.168,0.461 c -0.118,0.227 -9.832,24.367 -1.407,50.918 l 1.961,6.239 -6.464,-0.809 c -0.543,-0.078 -11.747,-1.609 -25.047,-15.613 -12.813,26.668 -40.203,43.203 -41.739,44.05 l -10.058,5.967 4.004,-11.013 c 1.601,-4.457 5.09,-18.079 1.718,-27.434 -0.996,-2.82 -2.168,-5.281 -3.437,-7.512 -14.316,14.231 -32.5,16.782 -33.301,16.887 l -7.363,1.008 2.969,-6.828 c 6.855,-15.735 1.543,-26.59 -4.59,-39.129 -4.551,-9.25 -9.246,-18.821 -9.219,-30.949 0.02,-16.68 8.867,-27.059 16.738,-32.344 -6.152,-4.746 -10.129,-12.18 -10.105,-20.496 0.015,-10.176 5.926,-18.95 14.461,-23.188 1.465,-8.621 7.16,-15.769 14.883,-19.258 l 8.652,-188.695 c -10.734,-1.879 -18.899,-11.269 -18.899,-22.508 0.032,-11.972 9.258,-21.769 20.989,-22.801 l 3.469,-75.89 c 0,-10.731 8.765,-19.43 19.48,-19.418 10.73,0 19.453,8.75 19.434,19.269 l 3.496,76.039 c 12.238,0.489 22.031,10.571 22.031,22.911 -0.039,11.621 -8.711,21.14 -19.922,22.66 l 8.684,188.726 c 8.101,3.625 14.07,10.918 15.347,19.36 8.235,4.363 13.828,13.008 13.789,22.957 0,9.707 -5.418,18.176 -13.386,22.617 m 1.328,89.773 c -5.196,-25.027 2.558,-45.839 3.652,-48.511 6.445,-22.825 -8.894,-34.563 -14.875,-38.188 -0.867,0.117 -1.734,0.129 -2.625,0.129 h -20.32 c 8.777,10.645 21.355,30.215 21.179,54.988 -0.039,6.368 -1.132,12.422 -2.988,18.11 6.184,7.222 11.856,11.265 15.977,13.472 m -57.61,3.989 c 2.551,7.144 2.129,15.379 1.067,21.843 12.793,-9.875 34.98,-30.847 35.156,-57.468 0.234,-27.075 -17.371,-48.008 -24.062,-54.934 l -1.172,-0.012 c -3.672,5.032 -8.203,14.297 -8.203,24.868 -0.04,18.484 8.984,29.324 8.984,29.324 0,0 -13.34,-8.66 -15.305,-25.711 -0.945,-8.332 0.871,-17.063 6.438,-28.481 h -8.125 c -2.5,3.852 -17.539,23.078 -4.668,44.778 2.168,3.664 11.914,17.8 13.183,20.675 1.536,3.536 1.336,6.817 1.336,6.817 -1.59,-2.656 -4.422,-5.844 -4.422,-5.844 -2.793,-3.101 -12.382,-13.023 -15.398,-16.68 -18.305,-22.183 -1.203,-46.875 0.281,-49.785 l -9.062,-0.015 c -25.442,33.211 1.386,59.453 2.578,60.601 l 0.293,0.305 c 1.719,1.965 3.398,3.769 5,5.5 6.535,7.09 12.137,13.164 16.101,24.219 m -54.48,-63.703 c -0.02,10.195 4.07,18.449 8.359,27.238 5.606,11.465 11.367,23.211 7.41,38.594 6.086,-1.934 15.032,-6.016 22.461,-13.809 -1.804,-2.27 -3.855,-4.484 -5.996,-6.816 -1.629,-1.797 -3.316,-3.594 -5.105,-5.625 -2.52,-2.539 -29.754,-31.25 -6.68,-66.836 -0.969,-0.121 -1.894,-0.332 -2.844,-0.571 -2.605,1.075 -17.586,8.02 -17.605,27.825 m 44.219,-97.579 7.785,-186.011 h -7.375 l -8.535,186.082 c 0.703,-0.032 1.425,-0.09 2.136,-0.09 z m 28.086,-307.589 c 0.039,-6.051 -4.922,-11.043 -11.016,-11.043 -6.105,0 -11.055,4.961 -11.094,11.25 l -3.476,75.589 6.836,0.024 2.863,-73.863 c 0,-5.457 2.508,-6.547 2.508,-6.547 l -1.282,80.41 18.196,0.027 z m 25.546,98.789 c 0,-8.02 -6.484,-14.532 -14.492,-14.563 l -43.086,-0.047 c -8.007,0 -14.504,6.52 -14.519,14.5 0,7.981 6.492,14.489 14.461,14.489 l 43.105,0.089 c 7.989,0 14.512,-6.5 14.531,-14.468 m -19.929,22.82 -21.535,-0.031 -2.293,186.011 29.343,0.039 c 1.036,0 2.012,0.071 3.067,0.208 z m 5.496,194.406 -45.188,-0.039 c -7.175,0 -13.406,4.34 -16.082,10.59 0.672,-0.063 1.336,-0.102 2.012,-0.102 l 74.172,0.102 c 0.848,0 1.668,0.02 2.5,0.098 -2.805,-6.145 -9.641,-10.625 -17.414,-10.649 m 14.875,18.918 -74.133,-0.066 c -9.668,-0.024 -17.5,7.832 -17.519,17.461 -0.02,9.644 7.824,17.476 17.468,17.5 l 74.133,0.117 c 1.317,0 2.59,-0.18 3.801,-0.434 l 0.074,-0.164 c 0,0 0.09,0.047 0.207,0.11 7.695,-1.868 13.438,-8.789 13.457,-16.996 0,-9.637 -7.82,-17.528 -17.488,-17.528" /><path
       id="path30"
       style="fill:#ffffff;fill-opacity:1;fill-rule:nonzero;stroke:none"
       d="m 822.844,846.941 c -2.16,5.317 0.574,10.43 1.492,11.164 0,0 -10.449,-1.828 -7.91,-13.488 1.933,-8.941 8.117,-9.883 16.035,-9.844 l 67.117,0.082 c 0,0 7.863,-0.746 10.832,6.7 l -75.066,-0.117 c -6.614,-0.012 -10.571,0.664 -12.5,5.503" /><path
       id="path32"
       style="fill:#ffffff;fill-opacity:1;fill-rule:nonzero;stroke:none"
       d="m 839.504,593.09 c -1.672,4.219 0.457,8.25 1.199,8.808 0,0 -8.242,-1.398 -6.269,-10.617 1.543,-7.051 6.425,-7.801 12.675,-7.769 l 36.602,0.047 c 0,0 6.172,-0.598 8.496,5.242 l -42.82,-0.051 c -5.227,0 -8.34,0.551 -9.883,4.34" /><path
       id="path34"
       style="fill:#ffffff;fill-opacity:1;fill-rule:nonzero;stroke:none"
       d="m 1266.03,1194.49 -1.36,24.25 c -1.61,22.43 -4.3,45.96 -8.09,69.97 l -2.72,16.34 c -1.56,8.65 -3.24,17.34 -5.18,26.09 l -1.59,7.33 -7.21,-2.11 c -0.21,-0.04 -11.83,-3.37 -31.39,-6.63 l -47.45,-5.41 c -9.4,-0.59 -19.4,-0.98 -29.97,-1.01 -27.61,-0.02 -54.62,2.48 -80.68,7.19 l -16.64,3.31 c -0.28,0.07 -0.61,0.08 -0.91,0.15 -0.34,0.09 -13.69,2.93 -34.012,9.83 l -22.129,8.23 c -22.09,8.84 -48.293,21.59 -74.316,39 l -21.731,15.8 c -4.05,3.23 -8.093,6.51 -12.058,10.02 l -4.844,4.18 -4.617,-4.39 c -0.149,-0.14 -4.055,-3.8 -11.43,-9.6 l -22.215,-16.01 c -18.125,-11.99 -43.34,-26.44 -74.765,-39.16 l -22.11,-8.25 c -10.683,-3.66 -21.902,-7.13 -33.73,-10.13 -0.313,-0.07 -0.637,-0.12 -0.918,-0.19 l -19.199,-4.18 c -22.598,-4.2 -46.934,-6.38 -72.715,-6.44 -12.598,0 -24.649,0.48 -35.906,1.31 l -47.54,5.52 c -18.792,3 -30.375,5.91 -30.617,5.97 l -7.05,1.79 -1.575,-7.09 c -1.511,-7.03 -2.781,-13.99 -4.097,-20.95 l -3.625,-21.18 c -3.672,-23.56 -6.27,-46.58 -7.793,-68.57 l -1.387,-24.42 c -0.508,-11.9 -0.762,-23.38 -0.82,-34.44 l 0.175,-23.68 c 1.329,-66.45 9.239,-112.33 9.883,-115.99 0.742,-5.67 14.793,-112.71 67.996,-241.792 C 589.734,658 685.422,492.102 857.773,387.609 l 7.481,-4.519 7.449,4.519 c 172.077,104.969 267.317,271.102 317.007,392.422 52.9,129.18 66.71,236.289 67.38,241.909 0.64,3.69 8.34,49.01 9.63,114.83 l 0.13,23.48 c -0.04,11.05 -0.31,22.42 -0.82,34.24 m -185.38,-174.96 -1.84,6.77 c -24.72,-6.66 -42.35,-9.76 -55.52,-9.78 h -0.2 c -22.88,0 -58.402,2.92 -98.266,16.91 -10.847,3.76 -23.808,7.94 -37.832,10.3 -14.258,2.44 -26.554,2.7 -39.765,0.97 -16.582,-2.13 -31.739,-7 -44.368,-11.49 -40.015,-14.06 -75.593,-17.04 -98.386,-17.09 h -0.137 c -19.57,0 -46.758,7.03 -70.781,13.93 l -1.946,-6.78 1.899,6.78 c -6.86,1.93 -13.645,3.93 -20.18,5.84 l -7.859,2.3 c -14.231,4.13 -37.969,7.23 -55.332,7.23 h -0.203 c -23.547,-0.03 -44.543,-5.18 -65.383,-16.03 -0.547,3.51 -1.27,8.57 -2.09,14.95 20.605,11.25 43.769,17.43 67.422,17.45 h 0.293 c 15.976,0 38.469,-2.93 51.347,-6.68 l 28.079,-8.17 1.961,6.75 -1.934,-6.75 c 26.348,-7.51 53.613,-14.47 74.687,-14.47 h 0.157 c 23.867,0.06 61.101,3.18 103.007,17.98 12.032,4.21 26.387,8.8 41.458,10.71 l 13.73,1.02 c 0.281,0 0.555,0 0.84,0 l 21.238,-1.86 c 13.027,-2.25 25.234,-6.18 35.43,-9.72 41.726,-14.59 78.855,-17.7 102.724,-17.7 h 0.36 c 14.42,0 32.64,3.16 59.18,10.25 10.84,2.92 21.74,6.15 32.16,9.23 l 11.51,3.39 c 12.69,3.73 36.14,6.78 52.31,6.8 h 0.16 c 23.71,0 47.02,-6.09 67.71,-17.38 -0.76,-6.1 -1.45,-10.92 -1.98,-14.42 -20.68,10.37 -42.26,15.44 -65.73,15.44 h -0.13 c -15.27,-0.01 -40.49,-2.8 -56.26,-7.37 l -11.68,-3.44 c -10.24,-3.06 -21,-6.23 -31.7,-9.1 z m -375.142,43.15 h 0.117 c 16.699,0.02 40,1.68 66.68,7.62 11.574,2.6 23.691,5.9 36.308,10.33 12.012,4.25 26.348,8.83 41.465,10.75 l 14.727,1 21.062,-1.86 c 13.254,-2.29 25.891,-6.41 35.442,-9.77 15.468,-5.41 30.293,-9.2 44.082,-11.89 23.379,-4.52 43.689,-5.76 58.759,-5.76 h 0.24 c 14.46,0 32.7,3.16 59.15,10.27 11.11,2.97 22.33,6.27 32.97,9.43 l 10.76,3.18 c 12.79,3.72 36.25,6.77 52.26,6.79 h 0.12 c 24.06,0 49.16,-6.24 69.86,-16.95 -0.49,-5.59 -0.97,-10.81 -1.49,-15.61 -21.49,10.76 -45.29,16.41 -69.44,16.41 h -0.17 c -15.42,-0.03 -40.66,-2.78 -56.24,-7.37 l -11.56,-3.4 c -10.28,-3.05 -21.08,-6.27 -31.82,-9.1 -15.8,-4.24 -38.65,-9.48 -55.88,-9.81 -22.79,0 -58.222,2.95 -98.105,16.9 -4.969,1.75 -10.742,3.65 -16.953,5.45 -6.563,1.91 -13.633,3.67 -20.899,4.92 -8.066,1.36 -15.625,2.03 -23.203,2.03 -5.547,-0.01 -10.937,-0.39 -16.492,-1.13 v 0 c -8.695,-1.09 -16.985,-2.99 -24.817,-5.18 -6.972,-1.97 -13.593,-4.13 -19.621,-6.27 -40.047,-14.12 -75.613,-17.09 -98.386,-17.13 h -0.118 c -19.414,0 -46.679,7.04 -70.839,13.91 l -28.028,8.15 c -14.199,4.12 -37.89,7.23 -55.273,7.23 h -0.305 c -24.109,-0.06 -47.82,-5.68 -69.195,-16.38 -0.481,4.59 -0.988,9.58 -1.465,14.92 21.121,11.16 46.98,17.59 71.863,17.62 h 0.137 c 16.016,0 38.574,-2.95 51.484,-6.7 l 28.067,-8.16 1.933,6.74 -1.925,-6.74 c 26.347,-7.53 53.644,-14.44 74.738,-14.44 m 159.433,43.77 -0.058,-1.09 v 1.09 c -5.567,-0.06 -11.133,-0.43 -16.543,-1.15 v 0 c -16.445,-2.09 -31.66,-6.96 -44.395,-11.44 -34.316,-12.09 -65.371,-16 -87.968,-16.9 10.253,73.93 72.714,128.96 148.234,129.05 h 0.191 c 74.543,0 137.808,-55.76 148.298,-128.62 -22.446,0.94 -53.005,4.83 -86.77,16.64 -10.09,3.54 -23.508,7.88 -37.817,10.36 l -0.086,-0.51 0.071,0.51 c -8.098,1.34 -15.676,2.06 -23.157,2.06 m 216.779,-26.29 -1.84,6.77 c -14.92,-4 -36.25,-9.22 -53,-9.7 -1.86,14.23 -5.63,27.82 -10.88,40.65 l 236.71,17.83 c -0.35,-16.32 -1.07,-31.26 -1.99,-44.62 -21.58,10.09 -46.88,15.72 -71.07,15.72 h -0.12 c -15.27,0 -40.48,-2.76 -56.18,-7.35 l -10.82,-3.18 c -10.54,-3.14 -21.61,-6.42 -32.63,-9.35 z m 171.13,78.26 -240.66,-32.16 c -1.85,3.85 -3.83,7.63 -5.96,11.35 l 245.84,53.85 c 0.45,-11.39 0.78,-22.48 0.78,-33.04 m -9.53,124.15 c 3.57,-23.32 5.99,-46.01 7.48,-67.71 l -249.06,-69.79 c -4.345,6.69 -9.24,12.94 -14.474,18.89 z m -62.48,29.29 c 26.11,2.66 45.73,6.75 55.61,9.15 0.95,-4.48 1.69,-8.93 2.53,-13.4 L 981.855,1169.95 c -2.636,2.74 -5.351,5.36 -8.164,7.88 z m -130.04,4.27 c 25.9,-4.49 52.81,-6.9 80.27,-6.86 3.33,0 6.47,0.13 9.67,0.21 L 967.734,1182.82 c -6.972,5.7 -14.375,10.87 -22.214,15.36 z m -59.12,15.12 c 14.85,-5.11 26.48,-8.23 32.84,-9.76 l -88.399,-118.16 c -4.5,2.23 -9.109,4.2 -13.836,6.02 z m -91.367,44.27 c 24.824,-16.08 49.414,-27.94 70.457,-36.45 l -58.172,-126.46 c -10.762,3.36 -21.907,5.72 -33.41,6.75 z m -36.309,26.67 c 5.195,-4.33 10.449,-8.47 15.723,-12.42 l -9.414,-170 c -1.973,0.09 -3.926,0.3 -5.911,0.3 h -0.203 c -2.09,0 -4.101,-0.21 -6.125,-0.3 l -9.441,170.26 c 6.805,5.02 12.031,9.27 15.371,12.16 m -36.426,-26.67 21.133,-156.18 c -11.719,-1.1 -22.988,-3.55 -33.848,-6.96 l -58.242,126.65 c 29.094,11.78 52.899,24.91 70.957,36.49 m -91.875,-44.34 69.442,-122.04 c -4.696,-1.78 -9.305,-3.83 -13.797,-6.04 l -88.321,118.06 c 11.453,3.06 22.344,6.43 32.676,10.02 m -133.652,-22.52 c 26.679,0 51.816,2.25 75.262,6.64 l 104.718,-117.31 c -7.922,-4.59 -15.41,-9.84 -22.422,-15.67 l -172.91,126.54 c 5.059,-0.11 10.117,-0.23 15.352,-0.2 m -110.449,11.53 c 9.89,-2.13 29.394,-5.94 54.628,-8.58 l 207.571,-134.27 c -2.785,-2.54 -5.52,-5.08 -8.117,-7.83 l -256.543,137.33 c 0.82,4.45 1.535,8.87 2.461,13.35 m -6.731,-38.3 255.539,-118.37 c -4.824,-5.66 -9.414,-11.52 -13.496,-17.78 l -249.258,69.86 c 1.426,21.28 3.789,43.49 7.215,66.29 m -8.484,-89.9 246.054,-53.85 c -2.187,-3.75 -4.179,-7.62 -6.054,-11.59 l -240.782,32.19 c 0.04,10.65 0.333,21.83 0.782,33.25 m 236.218,-73.95 c -5.234,-12.93 -8.972,-26.71 -10.808,-41.18 -19.094,0.78 -44.473,7.31 -67.168,13.78 l -28.035,8.15 c -14.199,4.11 -37.973,7.23 -55.364,7.23 h -0.214 c -24.981,-0.01 -50.996,-5.99 -73.028,-16.48 -0.996,13.79 -1.816,29.38 -2.168,46.36 z M 1176.56,784.961 C 1127.66,665.68 1034.04,502.43 865.242,399.512 696.152,501.941 602.051,665.012 552.871,784.191 507.566,893.895 491.016,987.117 486.836,1014.5 c 20.195,11.35 40.332,16.85 63.113,16.87 h 0.168 c 15.977,0 38.516,-2.93 51.426,-6.68 l 7.832,-2.3 c 6.582,-1.89 13.379,-3.89 20.293,-5.85 v -0.02 c 24.973,-7.14 53.359,-14.44 74.668,-14.44 h 0.137 c 23.894,0.06 61.172,3.19 103.047,17.92 11.914,4.21 26.132,8.78 41.375,10.75 l 13.808,1.02 c 0.266,0 0.539,0 0.805,0 l 21.305,-1.89 c 12.953,-2.22 25.148,-6.16 35.39,-9.72 41.699,-14.61 78.93,-17.69 102.887,-17.69 h 0.22 c 14.44,0.04 33.21,3.3 59.14,10.26 v 0 c 10.81,2.91 21.68,6.15 32.04,9.21 l 11.62,3.38 c 12.85,3.76 36.33,6.84 52.35,6.86 h 0.12 c 22.75,0 43.55,-5.53 63.49,-16.31 -4,-26.878 -20.24,-120.526 -65.51,-230.909" /><path
       id="path42"
       style="fill:#ffffff;fill-opacity:1;fill-rule:nonzero;stroke:none"
       d="m 2513.97,966.965 c -35.76,14.195 -54.18,37.345 -62.58,70.505 -6.33,23.64 -8.43,58.9 -8.43,127.82 v 125.21 c 0,18.39 -3.68,26.81 -19.99,26.81 h -24.73 c -3.13,0 -3.69,1.06 -3.69,4.72 v 11.61 c 0,3.14 0.56,4.19 4.75,4.19 5.27,0 31.04,-1.56 72.09,-1.56 41.01,0 66.27,1.56 72.06,1.56 4.21,0 4.71,-1.05 4.71,-3.14 v -13.71 c 0,-2.61 -0.5,-3.67 -4.2,-3.67 h -26.28 c -15.29,0 -24.22,-9.97 -25.28,-21.55 -0.52,-4.74 -1.03,-41.55 -1.03,-68.42 v -34.71 c 0,-27.84 2.09,-94.66 2.62,-111.5 0.52,-24.2 4.72,-48.94 16.83,-66.81 19.45,-28.422 53.14,-37.882 83.63,-37.882 30.01,0 60.5,10.015 78.91,28.932 20.53,22.1 27.36,53.65 27.36,92.6 v 112.53 c 0,40.01 -1.05,70.54 -2.62,83.65 -1.57,13.7 -9.98,23.16 -23.69,23.16 h -23.12 c -3.16,0 -3.7,1.58 -3.7,4.22 v 12.6 c 0,2.65 0.54,3.7 3.7,3.7 5.26,0 29.45,-1.56 64.7,-1.56 36.29,0 53.11,1.56 57.87,1.56 4.73,0 5.25,-2.13 5.25,-3.7 v -11.56 c 0,-3.17 -0.52,-5.26 -3.17,-5.26 h -21.56 c -19.46,0 -21.04,-14.75 -22.6,-21.03 -1.09,-5.26 -1.09,-79.95 -1.09,-87.32 0,-7.38 -1.03,-99.46 -2.62,-119.97 -3.15,-43.09 -14.71,-76.26 -44.16,-101.502 -21.06,-19.492 -53.14,-31.558 -98.94,-31.558 -27.31,0 -53.63,3.64 -71,11.035" /><path
       id="path44"
       style="fill:#ffffff;fill-opacity:1;fill-rule:nonzero;stroke:none"
       d="m 2965.9,992.207 c 0,-8.398 4.72,-11.047 11.55,-11.047 h 16.83 c 4.76,0 5.8,-1.582 5.8,-4.722 v -8.442 c 0,-3.648 -1.04,-5.789 -4.22,-5.789 -3.68,0 -19.95,1.594 -49.93,1.594 -26.85,0 -43.68,-1.594 -47.37,-1.594 -3.18,0 -4.22,1.594 -4.22,5.789 v 8.442 c 0,3.699 1.61,4.722 6.85,4.722 h 15.26 c 5.8,0 9.98,2.649 10.54,12.102 0.51,13.678 1.04,30.518 1.04,44.188 v 69.44 c 0,21.07 0,36.29 -15.26,47.34 -12.65,9.45 -25.26,9.45 -38.41,9.45 -8.42,0 -26.83,-3.67 -42.62,-20.5 -10.49,-11.59 -12.08,-25.76 -12.08,-35.75 V 998.523 c 0,-14.207 1.59,-17.363 12.61,-17.363 h 13.14 c 4.22,0 5.27,-1.582 5.27,-5.222 v -8.973 c 0,-3.164 -1.05,-4.758 -3.69,-4.758 -3.67,0 -17.87,1.594 -45.76,1.594 -26.81,0 -43.66,-1.594 -46.8,-1.594 -2.65,0 -3.71,1.594 -3.71,4.758 v 9.473 c 0,3.14 1.06,4.722 5.26,4.722 h 15.27 c 6.84,0 10.52,1.606 10.52,10.559 V 1114.8 c 0,15.77 -8.41,24.71 -21.56,31.05 l -4.23,2.09 c -3.68,1.55 -4.2,3.11 -4.2,4.73 v 2.64 c 0,2.61 2.11,4.18 4.75,5.26 l 45.25,25.23 c 4.2,2.09 7.35,3.69 9.47,3.69 2.61,0 3.65,-2.1 4.19,-6.33 l 3.68,-32.11 h 1.05 c 15.28,18.96 45.77,38.44 72.09,38.44 15.75,0 32.06,-3.14 44.7,-11.56 15.77,-10.55 28.94,-36.86 28.94,-49.97 V 992.207" /><path
       id="path46"
       style="fill:#ffffff;fill-opacity:1;fill-rule:nonzero;stroke:none"
       d="m 3029.57,1277.34 c 0,13.16 11.07,27.35 32.09,27.35 18.44,0 27.36,-14.19 27.36,-25.77 0,-13.65 -9.47,-28.96 -30.52,-28.96 -11.59,0 -28.93,10.52 -28.93,27.38 m 23.69,-160.41 c 0,17.83 -3.17,27.31 -29.47,31.5 -3.67,0.53 -4.75,1.59 -4.75,3.7 v 4.75 c 0,1.6 1.08,2.61 3.68,3.67 16.84,6.31 36.83,14.73 56.83,25.77 4.22,2.1 6.82,3.17 10,3.17 2.63,0 3.14,-2.61 2.63,-6.33 -1.05,-8.94 -1.05,-42.09 -1.05,-85.73 v -57.36 c 0,-20.51 0,-39.44 0.51,-45.187 1.05,-10.039 2.62,-13.723 8.42,-13.723 h 24.21 c 4.22,0 5.22,-1.582 5.22,-4.722 v -8.958 c 0,-3.703 -1,-5.273 -4.7,-5.273 -4.22,0 -28.41,1.57 -50.51,1.57 -30.51,0 -51.03,-1.57 -56.79,-1.57 -2.64,0 -4.22,1.074 -4.22,4.231 v 10.515 c 0,3.164 1.58,4.207 5.26,4.207 h 25.76 c 5.8,0 7.88,2.11 8.44,10.559 0.53,15.791 0.53,32.061 0.53,47.831 v 77.38" /><path
       id="path48"
       style="fill:#ffffff;fill-opacity:1;fill-rule:nonzero;stroke:none"
       d="m 3240.53,1012.19 h 1.56 c 8.44,20.52 45.24,110.48 50.53,131.01 3.65,14.19 0,22.61 -9.46,22.61 h -10.54 c -1.58,0 -2.11,2.65 -2.11,5.25 v 9.47 c 0,3.17 1.05,4.22 3.14,4.22 7.37,0 18.97,-1.57 42.11,-1.57 20.53,0 33.15,1.57 37.85,1.57 4.22,0 4.74,-0.53 4.74,-4.7 v -8.99 c 0,-3.66 0,-5.25 -2.63,-5.25 h -9.98 c -6.3,0 -11.57,-1.02 -16.32,-5.83 -7.88,-7.31 -34.19,-64.69 -42.09,-84.15 -6.31,-15.74 -45.24,-104.15 -47.33,-107.834 -4.21,-7.332 -6.84,-12.066 -12.62,-12.066 -5.23,0 -8.41,4.734 -11.05,11.035 -1.06,2.637 -39.45,102.585 -41.05,106.805 -1.55,4.18 -23.13,64.19 -26.8,72.6 -6.84,15.24 -12.11,19.44 -21.59,19.44 h -10.5 c -2.64,0 -3.18,2.12 -3.18,5.25 v 9.47 c 0,3.69 1.08,4.22 5.81,4.22 5.78,0 14.71,-1.57 44.17,-1.57 27.9,0 41.58,1.57 47.36,1.57 4.2,0 5.26,-1.05 5.26,-4.22 v -9.47 c 0,-3.13 -0.54,-5.25 -3.66,-5.25 h -10.55 c -5.27,0 -9.47,-3.17 -9.47,-9.98 0,-9.46 13.69,-53.14 16.83,-62.09 3.19,-9.99 25.78,-70.49 31.57,-81.55" /><path
       id="path50"
       style="fill:#ffffff;fill-opacity:1;fill-rule:nonzero;stroke:none"
       d="m 3466.75,1119.5 c 9.98,0 14.22,2.62 14.22,7.4 0,12.08 -6.34,46.79 -40.5,46.79 -23.19,0 -45.24,-15.21 -55.26,-54.19 z m -83.62,-15.76 c -1.06,-4.75 -1.62,-13.17 -1.62,-25.23 0,-51.58 32.65,-90.502 74.72,-90.502 32.11,0 54.71,18.412 63.67,35.762 1.04,2.11 3.15,3.16 4.72,2.62 l 6.84,-3.69 c 1.59,-0.51 2.62,-2.06 0,-7.86 -9.47,-21.031 -36.87,-57.32 -83.66,-57.32 -29.97,0 -63.11,8.918 -82.57,37.363 -18.39,26.797 -23.14,46.247 -23.14,83.067 0,20.53 5.25,55.77 33.11,83.64 22.64,23.18 48.94,27.9 75.25,27.9 60.49,0 77.33,-56.85 77.33,-77.35 0,-7.33 -6.34,-8.4 -14.73,-8.4 h -129.92" /><path
       id="path52"
       style="fill:#ffffff;fill-opacity:1;fill-rule:nonzero;stroke:none"
       d="m 3577,1103.74 c 0,26.83 -4.19,32.09 -18.95,39.98 l -10.02,5.26 c -3.13,1.04 -4.17,1.58 -4.17,3.68 v 3.19 c 0,2.07 1.04,3.11 4.17,4.7 l 52.1,26.84 c 3.15,1.57 5.26,2.1 7.35,2.1 3.16,0 3.7,-3.17 3.7,-6.33 l 2.64,-36.27 h 2.1 c 15.78,24.17 40.49,45.74 63.12,45.74 17.91,0 26.82,-11.03 26.82,-23.16 0,-15.24 -12.62,-25.75 -22.09,-25.75 -5.78,0 -11.06,2.09 -15.23,4.22 -4.23,2.62 -10.54,4.19 -17.39,4.19 -8.42,0 -22.09,-5.24 -31.01,-22.08 -3.19,-5.79 -5.3,-15.25 -5.3,-16.87 v -110.45 c 0,-16.277 3.73,-21.57 14.76,-21.57 h 24.7 c 3.18,0 3.7,-1.582 3.7,-4.722 v -9.473 c 0,-3.188 -0.52,-4.758 -2.63,-4.758 -3.14,0 -27.37,1.57 -55.77,1.57 -32.62,0 -54.7,-1.57 -57.85,-1.57 -2.1,0 -3.16,1.074 -3.16,5.273 v 8.958 c 0,3.699 1.06,4.722 5.77,4.722 h 20.53 c 7.92,0 11.57,3.156 11.57,10 0.54,17.35 0.54,35.77 0.54,63.12 v 49.46" /><path
       id="path54"
       style="fill:#ffffff;fill-opacity:1;fill-rule:nonzero;stroke:none"
       d="m 3718.75,972.742 c -2.62,1.567 -2.62,4.746 -3.14,7.375 l -8.93,49.983 c -0.51,2.61 1.06,3.68 3.14,4.22 l 6.84,1.54 c 2.09,0.53 3.67,-0.52 4.72,-3.15 l 13.18,-25.77 c 10.52,-19.452 17.86,-32.631 45.73,-32.631 18.44,0 41.59,11.062 41.59,35.801 0,23.67 -11.6,37.35 -51.03,48.37 -31.04,8.94 -62.08,25.24 -62.08,66.85 0,36.28 34.2,64.16 73.68,64.16 25.23,0 38.89,-6.33 48.38,-11.05 7.9,-3.68 8.9,-6.32 9.44,-9.46 l 7.91,-36.82 c 0,-2.11 -1.06,-3.71 -3.67,-4.77 l -6.36,-2.06 c -2.08,-0.56 -3.13,0 -4.69,2.63 l -17.91,24.17 c -6.29,10.02 -16.29,20.51 -36.82,20.51 -19.97,0 -40.49,-12.09 -40.49,-34.71 0,-30.5 24.71,-36.31 50.49,-43.65 38.42,-11.06 62.62,-26.86 63.15,-67.35 -0.53,-42.614 -35.26,-69.41 -79.97,-69.41 -25.78,0 -46.81,10.476 -53.16,15.222" /><path
       id="path56"
       style="fill:#ffffff;fill-opacity:1;fill-rule:nonzero;stroke:none"
       d="m 3880.8,1277.34 c 0,13.16 11.07,27.35 32.11,27.35 18.38,0 27.32,-14.19 27.32,-25.77 0,-13.65 -9.43,-28.96 -30.51,-28.96 -11.58,0 -28.92,10.52 -28.92,27.38 m 23.66,-160.43 c 0,17.85 -3.15,27.33 -29.46,31.52 -3.67,0.53 -4.73,1.59 -4.73,3.7 v 4.75 c 0,1.6 1.06,2.61 3.69,3.67 16.86,6.31 36.82,14.73 56.84,25.77 4.2,2.1 6.8,3.17 9.96,3.17 2.64,0 3.17,-2.61 2.64,-6.33 -1.04,-8.94 -1.04,-42.09 -1.04,-85.73 v -57.36 c 0,-20.51 0,-39.44 0.52,-45.187 1.05,-10.039 2.63,-13.723 8.41,-13.723 h 24.22 c 4.19,0 5.21,-1.582 5.21,-4.722 v -8.958 c 0,-3.703 -1.02,-5.273 -4.68,-5.273 -4.22,0 -28.45,1.57 -50.51,1.57 -30.52,0 -51.04,-1.57 -56.82,-1.57 -2.64,0 -4.22,1.074 -4.22,4.231 v 10.515 c 0,3.164 1.58,4.207 5.26,4.207 h 25.77 c 5.79,0 7.9,2.11 8.42,10.559 0.52,15.791 0.52,32.051 0.52,47.831 v 77.36" /><path
       id="path58"
       style="fill:#ffffff;fill-opacity:1;fill-rule:nonzero;stroke:none"
       d="m 4048.62,1029.54 c 0,-39.435 17.88,-46.27 27.36,-46.27 12.11,0 27.32,2.101 34.72,6.835 2.63,1.594 4.73,1.055 6.3,-1.003 l 2.64,-4.786 c 1.56,-2.097 0.54,-4.199 -1.05,-5.753 -5.26,-5.301 -26.81,-21.043 -58.41,-21.043 -25.73,0 -51.01,24.699 -51.01,44.68 0,21.57 1.57,67.86 1.57,75.24 v 11.55 c 0,9.49 0.52,44.73 1.06,66.84 h -32.09 c -4.73,0 -7.89,2.09 -7.89,6.32 0,4.19 3.16,5.78 9.45,9.44 12.64,7.37 53.18,48.4 60,66.29 1.55,4.19 4.19,5.23 7.35,5.23 4.23,0 5.27,-3.68 5.27,-7.84 l -2.66,-52.11 h 73.15 c 3.16,0 4.73,-2.63 3.68,-4.72 l -5.28,-18.43 c -0.53,-2.62 -1.58,-4.18 -4.72,-4.18 h -67.87 c -1.03,-24.24 -1.57,-49.44 -1.57,-73.68 v -52.61" /><path
       id="path60"
       style="fill:#ffffff;fill-opacity:1;fill-rule:nonzero;stroke:none"
       d="m 4138.07,847.527 c 0,11.067 11.6,20.539 24.21,20.539 10.01,0 19.46,-4.738 24.23,-5.769 3.66,-0.578 7.86,0 11.03,3.101 7.86,9.497 34.73,69.473 42.07,89.985 -2.6,13.152 -58.4,177.257 -62.6,188.337 -6.29,13.16 -11.04,22.15 -24.71,22.15 h -13.71 c -3.67,0 -4.2,1.51 -4.2,4.68 v 10.54 c 0,2.07 0.53,3.66 4.2,3.66 4.76,0 17.37,-1.59 48.44,-1.59 26.81,0 43.12,1.59 48.91,1.59 4.18,0 4.71,-1.59 4.71,-3.66 v -11.08 c 0,-2.63 -0.53,-4.14 -3.15,-4.14 h -10 c -5.76,0 -7.9,-3.72 -6.85,-11.64 1.62,-11.59 37.38,-127.3 43.18,-138.87 h 2.09 c 5.27,8.41 51.02,117.28 54.17,130.45 3.18,13.18 -1.04,20.06 -8.94,20.06 h -8.4 c -3.19,0 -3.69,1.51 -3.69,4.14 v 10.52 c 0,2.63 0.5,4.22 3.14,4.22 6.84,0 17.89,-1.59 43.17,-1.59 14.19,0 26.27,1.59 32.05,1.59 3.17,0 3.17,-2.12 3.17,-4.22 v -9.98 c 0,-3.17 0,-4.68 -2.62,-4.68 h -8.42 c -5.76,0 -13.14,-2.66 -18.42,-9.55 -11.56,-14.2 -46.3,-94.13 -82.61,-176.742 -25.76,-58.394 -46.25,-107.312 -55.71,-124.656 -7.41,-13.692 -16.85,-34.207 -44.74,-34.207 -19.99,0 -30,11.023 -30,26.812" /><path
       id="path62"
       style="fill:#ffffff;fill-opacity:1;fill-rule:nonzero;stroke:none"
       d="m 4639.75,1078.48 c 0,58.41 -42.62,95.21 -69.44,95.21 -14.22,0 -27.88,-3.14 -40.51,-16.81 -20.52,-21.05 -27.89,-42.6 -27.89,-82.6 0,-29.48 3.2,-49.44 20.01,-73.65 12.09,-17.36 27.36,-27.368 52.07,-27.368 39.99,0 65.76,48.928 65.76,105.218 m -152.01,-84.671 c -24.2,28.891 -28.95,48.401 -28.95,85.721 0,26.86 14.2,60.52 45.23,84.71 27.37,21.05 53.15,25.25 70.5,25.25 28.92,0 57.86,-14.69 73.66,-30.5 23.66,-24.23 35.75,-51.56 35.75,-85.77 0,-57.33 -51.55,-115.7 -116.26,-115.7 -25.24,0 -57.85,9.96 -79.93,36.289" /><path
       id="path64"
       style="fill:#ffffff;fill-opacity:1;fill-rule:nonzero;stroke:none"
       d="m 4737.62,1157.92 h -36.33 c -2.62,0 -3.63,1.07 -2.62,5.79 l 2.11,15.8 c 0.51,3.12 2.13,3.67 6.32,3.67 h 30.52 v 9.97 c 0,52.09 14.69,86.26 35.26,109.39 27.88,30.51 56.81,41.6 86.24,41.6 24.77,0 47.89,-9.45 47.89,-29.43 0,-12.63 -13.69,-22.65 -22.12,-22.65 -5.24,0 -10.51,1.08 -14.72,3.17 -4.72,2.62 -10.51,9.46 -12.63,12.11 -6.83,8.4 -14.18,12.06 -24.18,12.06 -13.67,0 -27.85,-3.66 -39.46,-18.39 -19.45,-24.69 -18.42,-70.5 -18.42,-107.32 v -10.51 h 63.68 c 3.67,0 4.2,-3.13 3.67,-5.25 l -2.63,-17.38 c -0.53,-2.07 -2.6,-2.63 -6.84,-2.63 h -57.88 v -46.83 c 0,-62.06 0,-110.46 0.55,-116.207 1.03,-8.985 2.6,-13.723 13.69,-13.723 h 29.97 c 4.72,0 5.78,-1.023 5.78,-4.207 v -8.418 c 0,-4.211 -1.06,-6.328 -3.67,-6.328 -3.17,0 -22.63,1.57 -63.13,1.57 -28.93,0 -55.76,-1.57 -60,-1.57 -3.14,0 -4.19,1.074 -4.19,3.672 v 11.594 c 0,2.664 1.05,3.687 5.26,3.687 h 25.24 c 10.02,0 12.12,6.328 12.64,18.41 v 98.91 59.44" /><path
       id="path66"
       style="fill:#ffffff;fill-opacity:1;fill-rule:nonzero;stroke:none"
       d="m 1445.59,489.602 c -6.3,4.707 -9.48,6.308 -12.09,6.308 -3.17,0 -5.27,-3.66 -8.42,-8.898 -3.17,-5.852 -5.78,-6.364 -9.47,-6.364 -3.15,0 -5.81,2.661 -4.75,8.422 2.11,13.16 7.37,79.969 8.94,95.192 0.53,3.148 1.59,3.148 3.7,3.148 l 7.89,-0.512 c 2.11,0 3.14,-1.046 3.14,-4.218 0.53,-16.84 1.58,-34.2 18.94,-60.989 15.79,-24.691 44.73,-38.961 73.64,-38.961 31.58,0 71.55,19.5 71.55,66.79 0,54.21 -38.91,74.218 -81,88.921 -16.3,5.809 -54.19,18.957 -76.79,42.618 -17.37,17.382 -26.3,42.082 -26.3,76.812 0,26.32 16.29,52.063 32.59,67.332 18.93,17.902 45.25,25.235 73.67,25.235 29.97,0 53.12,-8.907 62.06,-13.114 4.74,-2.644 7.36,-2.129 10,0.52 l 6.84,6.297 c 2.63,2.136 4.18,3.132 6.83,3.132 2.62,0 4.18,-4.168 4.18,-8.882 0,-18.418 6.86,-72.09 7.41,-83.7 0,-2.613 -0.55,-3.652 -2.64,-4.171 l -6.33,-1.579 c -1.56,-0.519 -2.62,0 -3.14,1.579 -4.23,15.261 -11.06,35.742 -32.62,58.375 -14.19,15.285 -32.62,22.621 -57.35,22.621 -46.81,0 -63.63,-34.746 -63.63,-61.528 0,-14.738 3.15,-32.09 16.29,-45.758 15.26,-15.269 44.71,-26.878 59.97,-31.582 36.3,-11.589 65.75,-20.488 84.69,-43.648 13.68,-16.301 23.15,-36.84 23.15,-71.551 0,-62.09 -37.88,-115.23 -107.32,-115.23 -36.81,0 -62.59,11.051 -83.63,27.383" /><path
       id="path68"
       style="fill:#ffffff;fill-opacity:1;fill-rule:nonzero;stroke:none"
       d="m 1839.94,584.801 c 0,58.41 -42.61,95.219 -69.43,95.219 -14.2,0 -27.87,-3.18 -40.51,-16.84 -20.51,-21.032 -27.87,-42.59 -27.87,-82.578 0,-29.473 3.14,-49.473 19.98,-73.641 12.1,-17.359 27.36,-27.352 52.09,-27.352 39.97,0 65.74,48.922 65.74,105.192 m -152.01,-84.68 c -24.21,28.899 -28.96,48.359 -28.96,85.731 0,26.839 14.21,60.5 45.25,84.679 27.36,21.078 53.13,25.25 70.49,25.25 28.94,0 57.89,-14.722 73.67,-30.519 23.67,-24.172 35.75,-51.543 35.75,-85.742 0,-57.34 -51.53,-115.711 -116.28,-115.711 -25.21,0 -57.83,10.019 -79.92,36.312" /><path
       id="path70"
       style="fill:#ffffff;fill-opacity:1;fill-rule:nonzero;stroke:none"
       d="m 2101.58,576.93 c 0,-25.27 0,-51.02 1.08,-62.098 1.55,-16.293 7.36,-18.391 13.67,-18.391 3.14,0 11.03,0 17.34,1.571 4.24,1.039 5.82,0 6.33,-2.102 l 1.58,-6.859 c 0.53,-3.153 -0.51,-4.242 -2.62,-4.742 l -55.25,-18.379 c -3.16,-1.071 -6.31,-2.141 -10.51,-2.141 -2.13,0 -4.2,1.07 -4.74,6.352 l -4.22,30.519 h -1.04 c -14.72,-20.519 -45.25,-36.871 -71.56,-36.871 -14.71,0 -32.08,1.59 -49.43,24.242 -21.58,27.848 -20.51,45.207 -20.51,103.078 v 61.032 c -0.55,14.699 -7.89,18.39 -20,19.988 -8.97,0.5 -11.58,1.062 -11.58,3.699 v 9.453 c 0,3.141 1.05,4.219 5.78,4.219 h 46.83 c 3.15,0 5.27,0.52 7.39,1.059 2.09,0 4.18,0.5 5.76,0.5 3.68,0 6.32,-2.637 5.78,-6.297 -0.51,-4.742 -2.1,-29.422 -2.1,-60.492 v -37.372 c 0,-21.058 -5.26,-54.699 11.57,-78.91 13.16,-18.937 27.89,-19.957 42.09,-19.957 14.2,0 35.26,13.668 45.24,26.278 2.14,2.66 5.27,9.48 5.27,14.222 v 125.168 c -1.05,14.77 -9.47,17.371 -22.64,18.43 -8.93,0 -11.56,1.062 -11.56,3.699 v 8.934 c 0,4.238 1.07,4.738 6.31,4.738 h 48.91 c 3.69,0 6.31,0.52 8.95,1.059 2.63,0 4.74,0.5 6.32,0.5 3.16,0 5.25,-2.637 4.73,-5.231 -0.54,-4.738 -3.17,-18.437 -3.17,-70 V 576.93" /><path
       id="path72"
       style="fill:#ffffff;fill-opacity:1;fill-rule:nonzero;stroke:none"
       d="m 2217.01,535.879 c 0,-39.438 17.88,-46.277 27.36,-46.277 12.09,0 27.35,2.089 34.71,6.839 2.64,1.571 4.71,1.039 6.33,-1.043 l 2.62,-4.726 c 1.57,-2.133 0.51,-4.242 -1.06,-5.801 -5.25,-5.262 -26.81,-21.062 -58.4,-21.062 -25.78,0 -51.02,24.73 -51.02,44.73 0,21.563 1.57,67.859 1.57,75.211 v 11.59 c 0,9.449 0.53,44.711 1.08,66.808 h -32.12 c -4.74,0 -7.87,2.102 -7.87,6.321 0,4.222 3.13,5.761 9.47,9.472 12.62,7.34 53.11,48.34 59.97,66.258 1.58,4.223 4.22,5.242 7.36,5.242 4.2,0 5.26,-3.671 5.26,-7.882 l -2.64,-52.059 h 73.12 c 3.17,0 4.74,-2.629 3.7,-4.738 l -5.26,-18.422 c -0.55,-2.629 -1.59,-4.192 -4.76,-4.192 h -67.86 c -1.03,-24.187 -1.56,-49.457 -1.56,-73.648 v -52.621" /><path
       id="path74"
       style="fill:#ffffff;fill-opacity:1;fill-rule:nonzero;stroke:none"
       d="m 2337.64,756.801 c 0,32.129 -6.33,37.879 -25.23,44.222 l -8.95,3.149 c -3.17,1.07 -3.69,1.582 -3.69,3.141 v 4.765 c 0,2.082 1.57,2.59 6.32,5.219 l 54.7,28.965 c 4.21,2.097 7.9,4.176 12.1,4.176 3.16,0 5.24,-4.176 4.22,-13.114 -1.06,-8.933 -1.58,-115.754 -1.58,-142.094 v -33.609 h 2.6 c 18.43,22.059 48.94,34.16 72.1,34.16 22.07,0 37.35,-6.781 52.06,-21.031 23.68,-22.07 22.62,-48.961 22.62,-77.32 v -29.969 c 0,-29.492 1.06,-62.102 1.06,-72.102 0,-6.289 8.42,-7.89 19.46,-7.89 h 8.95 c 4.21,0 5.78,-1.039 5.78,-4.719 v -7.879 c 0,-4.211 -1.06,-6.32 -4.2,-6.32 -3.69,0 -20.53,1.57 -50.51,1.57 -25.77,0 -44.69,-1.57 -49.45,-1.57 -3.66,0 -4.71,1.57 -4.71,5.801 v 8.91 c 0,2.636 0.53,4.207 3.67,4.207 h 12.09 c 8.95,0 19.46,1.07 20,10 0.53,7.383 0,35.242 0,52.051 v 42.621 c 0,29.468 -2.1,50.5 -17.38,64.738 -10.51,9.961 -21.56,14.723 -34.69,14.723 -15.27,0 -34.22,-5.262 -48.93,-22.071 -4.76,-5.793 -10.52,-16.34 -10.52,-25.793 V 509.059 c 0,-16.848 1.58,-21.59 11.58,-21.59 h 15.76 c 3.68,0 5.8,-1.039 5.8,-4.207 v -8.91 c 0,-3.692 -1.04,-5.801 -4.22,-5.801 -4.2,0 -25.78,1.57 -49.98,1.57 -26.31,0.02 -46.29,-1.57 -51.01,-1.57 -2.12,0 -3.69,1.59 -3.69,5.258 v 9.453 c 0,3.699 2.11,4.207 7.9,4.207 h 11.04 c 8.4,0 16.29,2.133 17.37,8.441 1.56,9.981 1.56,67.86 1.56,102.078 v 158.813" /><path
       id="path76"
       style="fill:#ffffff;fill-opacity:1;fill-rule:nonzero;stroke:none"
       d="m 2689.04,625.828 c 9.98,0 14.2,2.652 14.2,7.363 0,12.079 -6.31,46.829 -40.52,46.829 -23.14,0 -45.22,-15.239 -55.24,-54.192 z m -83.65,-15.738 c -1.05,-4.801 -1.6,-13.18 -1.6,-25.289 0,-51.563 32.62,-90.492 74.74,-90.492 32.06,0 54.67,18.41 63.64,35.793 1.04,2.097 3.16,3.136 4.74,2.617 l 6.82,-3.699 c 1.6,-0.508 2.65,-2.09 0,-7.84 -9.47,-21.09 -36.84,-57.371 -83.63,-57.371 -30,0 -63.12,8.929 -82.6,37.339 -18.42,26.864 -23.14,46.321 -23.14,83.114 0,20.527 5.25,55.777 33.14,83.687 22.61,23.133 48.92,27.832 75.21,27.832 60.49,0 77.35,-56.801 77.35,-77.301 0,-7.371 -6.33,-8.39 -14.75,-8.39 h -129.92" /><path
       id="path78"
       style="fill:#ffffff;fill-opacity:1;fill-rule:nonzero;stroke:none"
       d="m 2803.03,610.07 c 0,26.809 -4.2,32.078 -18.97,39.969 l -9.99,5.281 c -3.15,1.051 -4.19,1.551 -4.19,3.68 v 3.129 c 0,2.133 1.04,3.133 4.19,4.711 l 52.08,26.84 c 3.17,1.601 5.28,2.129 7.37,2.129 3.18,0 3.71,-3.161 3.71,-6.297 l 2.6,-36.332 h 2.11 c 15.77,24.218 40.54,45.781 63.18,45.781 17.85,0 26.79,-11.039 26.79,-23.16 0,-15.211 -12.59,-25.762 -22.09,-25.762 -5.76,0 -11.02,2.102 -15.23,4.211 -4.22,2.621 -10.53,4.199 -17.38,4.199 -8.44,0 -22.11,-5.269 -31.04,-22.097 -3.16,-5.801 -5.26,-15.27 -5.26,-16.813 V 509.031 c 0,-16.281 3.67,-21.519 14.72,-21.519 h 24.72 c 3.15,0 3.71,-1.614 3.71,-4.762 v -9.469 c 0,-3.16 -0.56,-4.73 -2.61,-4.73 -3.19,0 -27.41,1.57 -55.82,1.57 -32.61,0 -54.71,-1.57 -57.84,-1.57 -2.11,0 -3.2,1.051 -3.2,5.277 v 8.922 c 0,3.68 1.09,4.762 5.81,4.762 h 20.52 c 7.91,0 11.58,3.16 11.58,9.957 0.53,17.363 0.53,35.769 0.53,63.16 v 49.441" /><path
       id="path80"
       style="fill:#ffffff;fill-opacity:1;fill-rule:nonzero;stroke:none"
       d="m 3156.88,498.539 c 0,-8.449 4.72,-11.07 11.55,-11.07 h 16.84 c 4.77,0 5.8,-1.571 5.8,-4.719 v -8.398 c 0,-3.692 -1.03,-5.801 -4.19,-5.801 -3.7,0 -20,1.57 -50,1.57 -26.82,0 -43.66,-1.57 -47.31,-1.57 -3.17,0 -4.22,1.57 -4.22,5.801 v 8.398 c 0,3.68 1.54,4.719 6.82,4.719 h 15.24 c 5.81,0 10.01,2.621 10.52,12.109 0.54,13.672 1.08,30.524 1.08,44.172 v 69.48 c 0,21.032 0,36.282 -15.26,47.36 -12.64,9.422 -25.26,9.422 -38.39,9.422 -8.46,0 -26.83,-3.672 -42.61,-20.5 -10.54,-11.602 -12.12,-25.774 -12.12,-35.793 V 504.852 c 0,-14.18 1.58,-17.383 12.62,-17.383 h 13.16 c 4.22,0 5.25,-1.571 5.25,-5.258 v -8.93 c 0,-3.16 -1.03,-4.73 -3.68,-4.73 -3.64,0 -17.86,1.57 -45.76,1.57 -26.81,0 -43.63,-1.57 -46.81,-1.57 -2.62,0 -3.68,1.57 -3.68,4.73 v 9.469 c 0,3.148 1.06,4.719 5.25,4.719 h 15.27 c 6.83,0 10.52,1.601 10.52,10.543 v 123.07 c 0,15.797 -8.43,24.719 -21.59,31.059 l -4.2,2.129 c -3.66,1.558 -4.19,3.152 -4.19,4.699 v 2.633 c 0,2.66 2.07,4.218 4.73,5.238 l 45.23,25.301 c 4.2,2.109 7.37,3.668 9.47,3.668 2.62,0 3.7,-2.129 4.23,-6.297 l 3.65,-32.09 h 1.05 c 15.3,18.949 45.75,38.387 72.09,38.387 15.78,0 32.07,-3.161 44.71,-11.59 15.77,-10.508 28.93,-36.789 28.93,-49.957 V 498.539" /><path
       id="path82"
       style="fill:#ffffff;fill-opacity:1;fill-rule:nonzero;stroke:none"
       d="m 3358.37,510.621 c -37.9,35.758 -56.27,96.84 -56.27,147.309 0,48.89 15.77,99.39 53.6,139.359 26.86,28.473 74.2,53.16 131.55,53.16 47.87,0 87.32,-17.871 106.26,-28.906 6.84,-4.246 9.44,-3.699 10.53,0 l 4.2,15.215 c 1.05,3.203 2.11,3.203 6.82,3.203 4.75,0 5.78,-1.055 5.78,-8.445 0,-9.973 10.54,-87.317 13.15,-102.036 0.52,-2.66 0,-4.742 -2.1,-5.289 l -7.89,-2.082 c -2.61,-0.539 -3.66,0 -5.25,4.172 -7.36,17.379 -18.93,42.66 -41.04,65.297 -22.08,22.582 -49.96,40.465 -91.54,40.473 -94.16,0 -132.01,-83.61 -131.49,-160.449 0,-30.493 9.48,-89.961 50.5,-135.204 35.75,-39.957 65.75,-44.148 100.96,-44.148 59.5,0 105.76,32.602 129.97,66.781 1.58,2.649 2.62,3.141 4.2,1.598 l 6.86,-5.27 c 1.55,-1.078 2.62,-2.129 1.04,-4.738 -31.57,-45.769 -82.57,-88.402 -156.75,-88.402 -62.08,0 -101.54,19.472 -133.09,48.402" /><path
       id="path84"
       style="fill:#ffffff;fill-opacity:1;fill-rule:nonzero;stroke:none"
       d="m 3779.43,585.852 c -18.94,-14.223 -70.48,-24.711 -70.48,-68.34 0,-19.5 11.56,-28.973 27.36,-28.973 15.21,0 43.12,18.422 43.12,32.641 z m 38.4,-53.133 c 0,-30 6.29,-39.43 15.78,-39.43 8.41,0 15.79,4.18 18.39,7.859 2.12,2.672 3.18,3.704 5.29,2.102 l 5.25,-4.199 c 1.62,-1.582 2.64,-4.242 -0.53,-9.461 -4.2,-7.899 -14.2,-25.781 -41.03,-25.781 -18.94,0 -32.62,13.711 -37.34,35.242 h -1.04 c -11.09,-13.153 -28.43,-24.18 -52.09,-32.063 -10,-3.179 -19.48,-3.179 -31.02,-3.179 -12.67,0 -31.59,10.543 -31.59,43.691 0,24.16 11.06,45.219 52.61,63.648 23.7,10.512 51,23.133 59.43,30.461 v 33.711 c -1.03,8.93 -1.56,22.61 -7.36,29.418 -5.78,6.864 -16.29,11.633 -31.58,11.633 -10.49,0 -26.81,-4.242 -34.14,-11.109 -7.37,-6.793 -2.65,-14.703 -2.65,-24.153 0,-18.41 -6.34,-30 -27.9,-30 -8.41,0 -12.6,4.743 -12.6,16.852 0,16.82 14.71,36.777 36.3,49.437 22.08,13.161 40.49,18.383 64.17,18.383 24.73,0 34.72,-7.359 42.11,-14.191 11.02,-11.059 11.54,-23.121 11.54,-37.34 v -80.48 -31.051" /><path
       id="path86"
       style="fill:#ffffff;fill-opacity:1;fill-rule:nonzero;stroke:none"
       d="m 3950.48,626.891 c 0,-27.332 0,-106.782 0.54,-123.071 0.52,-8.968 2.6,-16.351 13.68,-16.351 h 23.66 c 4.74,0 5.79,-1.571 5.79,-4.719 v -8.941 c 0,-3.118 -1.05,-5.258 -3.14,-5.258 -3.7,0 -26.86,1.57 -59.45,1.57 -33.67,0 -54.7,-1.57 -59.47,-1.57 -2.6,0 -3.64,2.14 -3.64,5.258 v 8.941 c 0,3.68 1.04,4.719 6.8,4.719 h 25.24 c 5.82,0 11.07,3.691 11.58,13.191 0.53,16.301 0.53,106.801 0.53,137.25 v 33.16 c 0,37.379 -0.53,85.211 -1.58,98.918 -1.05,17.891 -9.44,26.274 -26.27,31.535 l -10.54,3.719 c -2.62,0.996 -3.16,1.528 -3.16,2.629 v 4.192 c 0,1.57 1.59,2.605 4.76,3.691 18.41,8.426 42.04,17.867 61.5,30.508 4.76,3.164 7.92,4.207 11.07,4.207 3.69,0 4.75,-2.656 4.24,-9.473 -0.55,-28.933 -2.14,-138.348 -2.14,-167.285 v -46.82" /><path
       id="path88"
       style="fill:#ffffff;fill-opacity:1;fill-rule:nonzero;stroke:none"
       d="m 4022.53,783.66 c 0,13.16 11.05,27.324 32.09,27.324 18.42,0 27.35,-14.164 27.35,-25.765 0,-13.668 -9.48,-28.938 -30.51,-28.938 -11.57,0 -28.93,10.547 -28.93,27.379 m 23.65,-160.469 c 0,17.899 -3.14,27.368 -29.46,31.59 -3.67,0.539 -4.73,1.551 -4.73,3.668 v 4.731 c 0,1.59 1.06,2.64 3.69,3.66 16.86,6.351 36.82,14.75 56.81,25.789 4.21,2.109 6.84,3.152 9.97,3.152 2.68,0 3.21,-2.609 2.68,-6.269 -1.05,-8.942 -1.05,-42.114 -1.05,-85.782 v -57.332 c 0,-20.507 0,-39.437 0.5,-45.218 1.08,-10.02 2.6,-13.668 8.42,-13.668 h 24.24 c 4.16,0 5.19,-1.614 5.19,-4.762 v -8.941 c 0,-3.688 -1.03,-5.258 -4.69,-5.258 -4.21,0 -28.41,1.57 -50.5,1.57 -30.52,0 -51.06,-1.57 -56.82,-1.57 -2.6,0 -4.22,1.051 -4.22,4.187 v 10.551 c 0,3.141 1.62,4.223 5.28,4.223 h 25.76 c 5.79,0 7.92,2.078 8.4,10.5 0.53,15.808 0.53,32.09 0.53,47.898 v 77.281" /><path
       id="path90"
       style="fill:#ffffff;fill-opacity:1;fill-rule:nonzero;stroke:none"
       d="m 4179.04,664.262 h -36.32 c -2.58,0 -3.66,1.039 -2.58,5.75 l 2.09,15.816 c 0.49,3.172 2.07,3.641 6.29,3.641 h 30.52 V 699.5 c 0,52.059 14.7,86.25 35.24,109.395 27.88,30.492 56.82,41.554 86.27,41.554 24.7,0 47.87,-9.453 47.87,-29.426 0,-12.644 -13.67,-22.652 -22.09,-22.652 -5.27,0 -10.56,1.051 -14.73,3.172 -4.76,2.629 -10.53,9.465 -12.63,12.07 -6.85,8.438 -14.18,12.11 -24.2,12.11 -13.68,0 -27.89,-3.672 -39.48,-18.418 -19.44,-24.727 -18.4,-70.485 -18.4,-107.305 v -10.531 h 63.67 c 3.68,0 4.23,-3.117 3.68,-5.25 l -2.6,-17.379 c -0.53,-2.102 -2.65,-2.578 -6.87,-2.578 h -57.88 V 617.41 c 0,-62.051 0,-110.469 0.56,-116.262 1.05,-8.918 2.63,-13.679 13.7,-13.679 h 29.94 c 4.73,0 5.78,-1.039 5.78,-4.18 v -8.418 c 0,-4.211 -1.05,-6.32 -3.65,-6.32 -3.2,0 -22.63,1.57 -63.14,1.57 -28.93,0 -55.78,-1.57 -59.94,-1.57 -3.21,0 -4.26,1.051 -4.26,3.679 v 11.579 c 0,2.621 1.05,3.66 5.27,3.66 h 25.26 c 10,0 12.11,6.332 12.63,18.422 v 98.898 59.473" /><path
       id="path92"
       style="fill:#ffffff;fill-opacity:1;fill-rule:nonzero;stroke:none"
       d="m 4455.88,584.801 c 0,58.41 -42.6,95.219 -69.43,95.219 -14.2,0 -27.91,-3.18 -40.51,-16.84 -20.51,-21.032 -27.89,-42.59 -27.89,-82.578 0,-29.473 3.16,-49.473 20.02,-73.641 12.09,-17.371 27.34,-27.352 52.07,-27.352 39.98,0 65.74,48.922 65.74,105.192 m -152.01,-84.68 c -24.21,28.899 -28.96,48.359 -28.96,85.731 0,26.839 14.2,60.5 45.25,84.679 27.36,21.078 53.16,25.25 70.48,25.25 28.95,0 57.88,-14.722 73.68,-30.519 23.67,-24.172 35.76,-51.543 35.76,-85.731 0,-57.351 -51.56,-115.722 -116.26,-115.722 -25.28,0 -57.86,10.019 -79.95,36.312" /><path
       id="path94"
       style="fill:#ffffff;fill-opacity:1;fill-rule:nonzero;stroke:none"
       d="m 4542.04,610.07 c 0,26.809 -4.21,32.078 -18.96,39.969 l -9.96,5.281 c -3.17,1.051 -4.21,1.551 -4.21,3.68 v 3.121 c 0,2.141 1.04,3.141 4.21,4.719 l 52.06,26.84 c 3.14,1.601 5.24,2.129 7.36,2.129 3.14,0 3.67,-3.161 3.67,-6.297 l 2.64,-36.332 h 2.09 c 15.79,24.218 40.54,45.781 63.16,45.781 17.88,0 26.8,-11.039 26.8,-23.16 0,-15.211 -12.61,-25.762 -22.07,-25.762 -5.79,0 -11.08,2.102 -15.28,4.211 -4.21,2.621 -10.52,4.199 -17.34,4.199 -8.43,0 -22.08,-5.269 -31.01,-22.097 -3.15,-5.801 -5.3,-15.27 -5.3,-16.813 V 509.031 c 0,-16.281 3.67,-21.519 14.73,-21.519 h 24.74 c 3.16,0 3.66,-1.614 3.66,-4.762 v -9.469 c 0,-3.16 -0.5,-4.73 -2.62,-4.73 -3.16,0 -27.36,1.57 -55.76,1.57 -32.62,0 -54.7,-1.57 -57.87,-1.57 -2.1,0 -3.15,1.051 -3.15,5.277 v 8.922 c 0,3.68 1.05,4.762 5.76,4.762 h 20.53 c 7.91,0 11.58,3.16 11.58,9.957 0.54,17.363 0.54,35.769 0.54,63.16 v 49.441" /><path
       id="path96"
       style="fill:#ffffff;fill-opacity:1;fill-rule:nonzero;stroke:none"
       d="m 4895,498.539 c 0,-8.449 4.75,-11.07 11.58,-11.07 h 16.86 c 4.7,0 5.78,-1.571 5.78,-4.719 v -8.398 c 0,-3.692 -1.08,-5.801 -4.24,-5.801 -3.65,0 -19.94,1.57 -49.96,1.57 -26.84,0 -43.65,-1.57 -47.32,-1.57 -3.18,0 -4.22,1.57 -4.22,5.801 v 8.398 c 0,3.68 1.54,4.719 6.83,4.719 h 15.26 c 5.78,0 9.98,2.621 10.52,12.109 0.53,13.672 1.06,30.524 1.06,44.172 v 69.48 c 0,21.032 0,36.282 -15.26,47.36 -12.65,9.422 -25.25,9.422 -38.41,9.422 -8.43,0 -26.8,-3.672 -42.59,-20.5 -10.51,-11.602 -12.12,-25.774 -12.12,-35.793 V 504.852 c 0,-14.18 1.61,-17.383 12.64,-17.383 h 13.12 c 4.22,0 5.27,-1.571 5.27,-5.258 v -8.93 c 0,-3.16 -1.05,-4.73 -3.67,-4.73 -3.69,0 -17.9,1.57 -45.8,1.57 -26.82,0 -43.64,-1.57 -46.79,-1.57 -2.62,0 -3.69,1.57 -3.69,4.73 v 9.469 c 0,3.148 1.07,4.719 5.27,4.719 h 15.23 c 6.86,0 10.55,1.601 10.55,10.543 v 123.07 c 0,15.797 -8.41,24.719 -21.56,31.059 l -4.22,2.129 c -3.69,1.558 -4.2,3.152 -4.2,4.699 v 2.633 c 0,2.66 2.11,4.218 4.72,5.238 l 45.22,25.289 c 4.24,2.121 7.37,3.68 9.51,3.68 2.62,0 3.66,-2.129 4.16,-6.297 l 3.73,-32.09 h 1.02 c 15.27,18.949 45.77,38.387 72.1,38.387 15.75,0 32.1,-3.161 44.72,-11.59 15.76,-10.508 28.9,-36.789 28.9,-49.957 V 498.539" /><path
       id="path98"
       style="fill:#ffffff;fill-opacity:1;fill-rule:nonzero;stroke:none"
       d="m 4958.72,783.66 c 0,13.16 11.05,27.324 32.08,27.324 18.4,0 27.36,-14.164 27.36,-25.765 0,-13.668 -9.49,-28.938 -30.54,-28.938 -11.56,0 -28.9,10.547 -28.9,27.379 m 23.62,-160.469 c 0,17.899 -3.12,27.368 -29.47,31.59 -3.63,0.539 -4.69,1.551 -4.69,3.668 v 4.731 c 0,1.59 1.06,2.64 3.68,3.66 16.81,6.351 36.83,14.75 56.81,25.789 4.2,2.109 6.84,3.152 10.01,3.152 2.59,0 3.15,-2.609 2.59,-6.269 -1.04,-8.942 -1.04,-42.114 -1.04,-85.782 v -57.332 c 0,-20.507 0,-39.437 0.55,-45.218 1.05,-10.02 2.6,-13.668 8.42,-13.668 h 24.18 c 4.24,0 5.24,-1.614 5.24,-4.762 v -8.941 c 0,-3.688 -1,-5.258 -4.69,-5.258 -4.24,0 -28.44,1.57 -50.52,1.57 -30.49,0 -51.03,-1.57 -56.83,-1.57 -2.6,0 -4.18,1.051 -4.18,4.187 v 10.551 c 0,3.141 1.58,4.223 5.26,4.223 h 25.76 c 5.8,0 7.91,2.078 8.42,10.5 0.5,15.808 0.5,32.09 0.5,47.898 v 77.281" /><path
       id="path100"
       style="fill:#ffffff;fill-opacity:1;fill-rule:nonzero;stroke:none"
       d="m 5186.49,585.852 c -18.94,-14.223 -70.49,-24.711 -70.49,-68.34 0,-19.5 11.58,-28.973 27.36,-28.973 15.25,0 43.13,18.422 43.13,32.641 z m 38.41,-53.133 c 0,-30 6.31,-39.43 15.74,-39.43 8.47,0 15.83,4.18 18.44,7.859 2.1,2.672 3.18,3.704 5.28,2.102 l 5.21,-4.199 c 1.56,-1.582 2.68,-4.242 -0.52,-9.461 -4.2,-7.899 -14.15,-25.781 -41.01,-25.781 -18.92,0 -32.59,13.711 -37.36,35.242 h -1.05 c -11.04,-13.153 -28.39,-24.18 -52.07,-32.063 -9.98,-3.179 -19.45,-3.179 -31.02,-3.179 -12.63,0 -31.58,10.543 -31.58,43.691 0,24.16 11.06,45.219 52.62,63.648 23.65,10.512 51.01,23.133 59.43,30.461 v 33.711 c -1.04,8.93 -1.59,22.61 -7.38,29.418 -5.78,6.864 -16.3,11.633 -31.53,11.633 -10.54,0 -26.85,-4.242 -34.2,-11.109 -7.36,-6.793 -2.65,-14.703 -2.65,-24.153 0,-18.41 -6.29,-30 -27.85,-30 -8.44,0 -12.66,4.743 -12.66,16.852 0,16.82 14.75,36.777 36.31,49.437 22.11,13.161 40.49,18.383 64.2,18.383 24.73,0 34.69,-7.359 42.07,-14.191 11.06,-11.059 11.58,-23.121 11.58,-37.34 v -80.48 -31.051" /></g></svg>
